<?xml version="1.0" standalone="no"?>
<!DOCTYPE svg PUBLIC "-//W3C//DTD SVG 20010904//EN"
 "http://www.w3.org/TR/2001/REC-SVG-20010904/DTD/svg10.dtd">
<svg version="1.0" xmlns="http://www.w3.org/2000/svg"
 width="600.000000pt" height="619.000000pt" viewBox="0 0 600.000000 619.000000"
 preserveAspectRatio="xMidYMid meet">

<g transform="translate(0.000000,619.000000) scale(0.100000,-0.100000)"
fill="#000000" stroke="none">
<path d="M3000 6183 c8 -3 39 -14 68 -25 101 -38 155 -109 156 -208 0 -125
-95 -218 -235 -228 -156 -11 -271 70 -294 207 -6 37 -9 41 -17 26 -16 -27 -2
-112 26 -160 96 -163 328 -204 503 -89 74 48 113 117 113 202 0 132 -65 207
-229 263 -47 16 -133 27 -91 12z"/>
<path d="M2800 6167 c0 -1 4 -17 9 -34 9 -30 7 -34 -20 -50 -40 -24 -36 -33
11 -33 36 0 41 -3 53 -32 l14 -33 17 33 c15 29 21 32 64 32 l47 0 -38 22 c-39
23 -41 31 -21 82 6 15 3 15 -30 0 -34 -17 -38 -17 -71 -1 -19 9 -35 16 -35 14z"/>
<path d="M4536 5728 c-19 -73 2 -173 54 -253 21 -33 44 -73 50 -89 l11 -29
-38 9 c-75 17 -233 10 -311 -14 -111 -35 -109 -55 13 -118 72 -36 79 -38 168
-36 56 0 121 9 167 21 l75 20 93 -97 c103 -108 147 -160 140 -167 -3 -3 -33 9
-68 27 -57 30 -70 33 -154 32 -112 0 -269 -37 -264 -63 5 -23 96 -89 156 -111
64 -24 143 -26 267 -5 117 19 145 19 162 -2 32 -40 122 -181 147 -230 l26 -52
-103 54 c-57 30 -130 64 -163 76 -67 23 -174 28 -217 11 l-28 -12 30 -44 c51
-73 166 -147 285 -181 43 -13 85 -16 155 -14 l96 4 33 -65 c34 -68 95 -240 88
-247 -2 -2 -30 19 -62 47 -140 122 -261 180 -381 181 -35 1 -67 -2 -70 -4 -12
-12 36 -87 92 -143 101 -102 254 -160 400 -153 l49 3 33 -139 c18 -77 32 -148
31 -159 -2 -15 -22 -1 -93 63 -155 141 -259 197 -352 189 -35 -3 -38 -5 -35
-32 5 -48 31 -87 107 -162 94 -93 169 -131 293 -146 86 -11 92 -13 96 -37 11
-59 15 -191 9 -261 l-8 -75 -72 105 c-120 176 -218 255 -330 268 l-46 5 7 -44
c11 -73 72 -185 136 -249 66 -66 174 -125 249 -135 l51 -7 0 -38 c0 -84 -51
-320 -69 -320 -5 0 -28 44 -51 98 -54 124 -91 182 -149 234 -43 38 -112 77
-137 78 -37 0 -19 -134 31 -236 50 -102 109 -163 205 -213 44 -23 80 -43 80
-45 0 -31 -145 -365 -154 -355 -3 2 -9 51 -16 109 -6 58 -18 130 -26 160 -32
111 -134 239 -168 211 -35 -29 -45 -152 -21 -265 21 -101 51 -153 127 -227
l68 -65 -35 -59 c-29 -48 -163 -235 -169 -235 0 0 -1 73 -1 162 0 111 -5 179
-14 211 -15 51 -68 117 -93 117 -9 0 -26 -28 -44 -72 -26 -66 -29 -84 -29
-193 0 -137 12 -173 83 -259 l41 -49 -42 -51 c-73 -88 -165 -181 -172 -175 -3
4 1 44 9 89 31 163 14 299 -45 363 -29 32 -29 32 -45 12 -48 -59 -93 -209 -94
-307 0 -72 19 -143 49 -185 15 -21 30 -43 34 -50 7 -11 -214 -197 -282 -236
l-31 -18 39 56 c23 33 45 79 52 109 14 64 8 262 -9 294 -12 21 -14 21 -42 7
-45 -23 -108 -94 -138 -155 -26 -53 -27 -61 -27 -223 l0 -168 -115 -61 c-63
-34 -137 -70 -165 -80 l-50 -18 67 62 c36 35 73 78 83 96 28 56 55 182 55 254
l0 68 -29 0 c-35 0 -133 -70 -174 -123 -40 -53 -65 -134 -85 -275 l-16 -124
-35 -14 c-53 -22 -231 -72 -281 -79 l-45 -6 64 35 c36 20 78 48 94 63 74 69
147 224 147 310 l0 36 -47 -7 c-151 -20 -256 -138 -349 -388 -33 -89 -12 -81
-244 -98 -138 -11 -174 -10 -332 8 -98 10 -184 25 -192 31 -7 6 -28 53 -46
104 -62 179 -158 301 -263 332 -64 19 -97 19 -97 0 0 -71 65 -236 121 -306 17
-22 56 -54 85 -71 95 -53 71 -51 -132 14 l-132 41 -6 71 c-18 186 -57 297
-128 368 -45 45 -134 96 -146 83 -13 -13 -5 -160 13 -230 24 -95 44 -132 104
-188 27 -26 46 -47 40 -47 -13 0 -140 64 -220 112 l-66 39 5 138 c4 121 2 147
-16 207 -23 74 -88 161 -143 189 -27 14 -29 14 -40 -7 -18 -33 -24 -222 -10
-290 7 -32 25 -75 42 -98 17 -23 28 -44 26 -46 -6 -7 -149 102 -222 169 l-60
54 28 40 c38 54 47 93 47 193 0 88 -13 155 -49 250 -32 84 -35 86 -65 67 -42
-28 -59 -74 -64 -169 -4 -76 7 -198 25 -278 5 -21 -5 -15 -57 35 -34 33 -82
84 -105 114 l-43 53 38 60 c68 105 97 231 79 352 -10 72 -52 166 -75 166 -18
0 -61 -59 -78 -108 -31 -86 -38 -158 -27 -274 6 -62 9 -113 7 -115 -6 -6 -134
182 -164 241 l-31 60 55 59 c62 67 88 113 109 194 28 109 13 303 -24 303 -18
0 -69 -50 -100 -98 -37 -58 -66 -165 -76 -280 -9 -102 -13 -98 -83 79 -74 187
-75 171 8 215 85 44 156 119 199 207 44 88 67 226 40 242 -5 4 -35 -5 -65 -20
-91 -45 -164 -144 -229 -313 -25 -63 -31 -72 -41 -57 -16 21 -42 130 -54 225
-15 121 -16 117 35 124 70 11 173 68 238 133 67 67 126 177 135 249 l5 47 -43
-7 c-54 -8 -120 -44 -181 -96 -44 -38 -77 -81 -154 -204 -26 -43 -39 -56 -47
-48 -13 13 -14 161 -3 272 l7 70 42 0 c63 0 148 24 202 55 112 65 249 233 230
281 -5 14 -15 15 -57 10 -115 -15 -195 -64 -333 -202 l-78 -77 7 48 c4 26 19
99 34 162 l26 113 95 4 c154 6 287 72 374 185 59 78 65 98 31 107 -101 25
-251 -40 -422 -184 -29 -24 -53 -39 -53 -34 0 17 60 183 91 250 l28 64 91 -8
c78 -6 99 -4 161 16 90 29 209 106 249 161 16 23 30 46 30 50 0 18 -48 32
-105 31 -89 -1 -176 -35 -337 -132 l-38 -22 13 29 c23 53 50 98 120 208 39 61
72 111 72 113 1 1 56 -12 121 -29 93 -24 133 -30 184 -26 102 6 216 69 194
105 -31 48 -206 98 -315 89 -38 -3 -69 -3 -69 1 1 4 27 36 59 72 l59 65 164 0
c150 0 166 2 205 22 52 28 123 95 123 115 0 21 -110 43 -220 43 -74 0 -93 -4
-139 -28 -30 -15 -56 -25 -59 -22 -3 3 9 41 27 86 42 108 57 201 42 254 -19
67 -26 73 -58 49 -40 -30 -98 -109 -136 -184 -30 -61 -32 -71 -32 -172 l0
-107 -36 -38 c-20 -21 -61 -70 -92 -110 -31 -39 -61 -74 -65 -77 -5 -3 0 36
10 87 28 131 21 218 -23 305 -45 88 -61 88 -112 2 -58 -99 -80 -185 -75 -285
4 -71 10 -94 46 -170 23 -48 42 -92 42 -98 0 -7 -23 -50 -51 -97 -28 -47 -71
-125 -96 -174 -24 -48 -46 -86 -48 -84 -2 1 6 46 16 98 27 128 22 243 -14 322
-34 75 -84 148 -102 148 -34 0 -96 -191 -110 -336 -6 -60 -3 -80 20 -149 14
-44 46 -118 71 -165 24 -47 44 -93 44 -101 0 -7 -19 -70 -42 -139 l-43 -125
-6 105 c-5 79 -12 117 -29 153 -24 50 -127 167 -147 167 -23 0 -53 -142 -53
-250 0 -37 7 -89 15 -117 15 -49 97 -175 155 -238 l27 -30 -13 -130 c-8 -71
-16 -134 -18 -140 -2 -5 -11 17 -20 50 -42 145 -48 159 -101 211 -55 53 -104
80 -130 70 -12 -4 -15 -23 -15 -89 0 -180 56 -287 219 -419 l45 -36 17 -143
c10 -79 18 -151 18 -159 1 -8 -25 30 -56 85 -65 113 -116 168 -195 208 -51 26
-158 48 -158 33 0 -10 28 -102 47 -151 8 -22 35 -73 60 -114 53 -84 108 -126
243 -182 45 -18 86 -42 92 -53 21 -40 76 -216 67 -216 -5 0 -9 4 -9 8 0 23
-144 161 -199 190 -53 29 -186 59 -200 46 -3 -3 3 -28 12 -57 21 -67 109 -210
161 -262 51 -50 157 -106 256 -135 41 -13 80 -28 86 -34 7 -6 36 -56 65 -111
57 -108 55 -108 -48 -13 -35 31 -96 73 -139 94 -68 34 -86 39 -170 42 -84 4
-94 3 -94 -13 0 -48 150 -212 262 -287 59 -39 186 -78 279 -85 l76 -6 89 -108
c48 -60 92 -116 97 -125 12 -20 21 -26 -151 88 -73 48 -149 92 -170 97 -83 24
-243 4 -250 -30 -7 -39 142 -185 246 -242 86 -47 161 -61 320 -59 l142 1 104
-92 c57 -51 103 -93 101 -95 -1 -1 -42 15 -91 36 -129 57 -178 66 -271 53 -43
-6 -94 -15 -113 -21 -44 -12 -100 -46 -100 -60 0 -17 120 -100 195 -136 82
-39 172 -64 231 -64 58 0 199 26 265 49 l57 19 123 -74 c68 -41 117 -74 109
-74 -8 1 -42 7 -75 15 -122 30 -255 12 -372 -48 -45 -24 -94 -67 -87 -78 3 -5
31 -22 62 -38 157 -78 310 -66 547 43 l79 37 136 -53 135 -53 -115 -6 c-124
-6 -161 -17 -235 -70 -50 -36 -100 -102 -92 -122 8 -20 196 -51 268 -43 82 8
110 22 228 116 l104 83 136 -26 c75 -14 163 -29 196 -32 55 -7 58 -8 40 -22
-11 -8 -94 -52 -185 -98 -204 -104 -214 -112 -206 -152 4 -17 15 -38 25 -47
16 -14 22 -15 57 -2 51 18 137 61 297 148 147 81 233 112 286 102 75 -14 206
-84 349 -186 98 -71 142 -87 178 -63 17 11 24 25 24 47 0 39 -41 78 -147 144
-150 92 -185 115 -182 119 5 4 291 55 312 55 9 0 47 -27 84 -60 127 -113 227
-143 396 -121 105 14 147 28 147 49 0 21 -86 103 -141 135 -48 28 -141 47
-233 47 -34 0 -56 4 -50 9 5 4 60 28 123 51 129 50 101 52 316 -24 148 -52
209 -58 327 -29 85 20 193 73 193 93 0 21 -131 84 -217 105 -68 17 -160 17
-268 -1 -28 -4 -15 6 68 57 l104 62 111 -27 c148 -37 244 -43 325 -22 152 39
352 152 352 200 0 2 -37 19 -82 37 -73 29 -95 33 -178 33 -88 1 -103 -2 -204
-42 -60 -23 -114 -42 -120 -42 -12 0 60 67 142 131 l52 42 69 -7 c136 -14 348
30 457 95 69 40 208 174 217 207 8 32 -26 44 -130 50 -113 6 -167 -13 -322
-113 -69 -44 -133 -85 -140 -90 -18 -10 21 46 44 65 9 7 45 50 80 96 l65 83
57 6 c173 19 263 47 361 114 98 67 240 226 228 256 -9 25 -141 20 -228 -8 -87
-28 -133 -56 -230 -139 l-72 -63 39 70 c84 153 72 143 269 211 133 46 209 113
300 264 34 55 49 92 50 117 l1 38 -41 -2 c-50 -2 -182 -52 -235 -89 -22 -15
-63 -56 -91 -91 -28 -35 -53 -62 -55 -59 -8 8 71 236 82 236 22 0 232 110 268
141 21 17 49 48 62 69 22 36 105 256 105 280 0 22 -86 5 -157 -30 -87 -43
-127 -86 -192 -203 -29 -54 -55 -96 -56 -95 -2 2 4 68 13 147 l16 143 50 38
c90 66 181 170 199 225 36 109 42 280 11 292 -16 6 -48 -11 -102 -54 -64 -52
-93 -96 -128 -196 -18 -51 -33 -86 -33 -79 -1 8 -8 70 -16 139 -15 120 -15
126 3 138 25 18 158 194 170 225 29 76 20 296 -14 361 -14 28 -16 29 -43 14
-38 -19 -105 -96 -130 -149 -25 -50 -41 -129 -42 -205 l-1 -56 -45 133 -45
134 49 96 c85 164 98 206 96 297 -2 123 -73 355 -108 355 -37 0 -108 -115
-140 -224 -18 -62 -16 -120 11 -249 8 -38 14 -74 14 -80 0 -7 -38 55 -85 137
-47 81 -85 152 -85 156 0 5 16 57 36 116 50 151 47 206 -24 349 -49 98 -98
165 -120 165 -6 0 -24 -28 -41 -62 -43 -89 -50 -171 -22 -272 12 -43 20 -80
18 -83 -2 -2 -22 18 -43 44 -21 27 -66 77 -99 113 -91 96 -95 104 -95 185 0
82 -22 137 -93 230 -44 59 -147 145 -172 145 -7 0 -15 -10 -19 -22z"/>
<path d="M2795 5549 c-355 -34 -670 -145 -973 -342 -127 -83 -204 -147 -334
-279 -161 -164 -283 -336 -375 -528 -24 -52 -51 -106 -58 -120 -38 -73 -115
-381 -135 -540 -15 -122 -12 -351 5 -483 45 -347 187 -689 404 -972 64 -84
242 -266 331 -338 401 -323 918 -497 1408 -473 682 34 1284 377 1668 951 274
411 384 983 284 1476 -137 674 -581 1213 -1225 1489 -318 137 -667 192 -1000
159z m455 -55 c355 -50 700 -185 941 -366 171 -129 385 -356 508 -541 71 -105
173 -318 216 -451 73 -222 108 -468 98 -686 l-6 -121 -28 6 c-16 3 -43 8 -60
11 -38 7 -91 62 -153 154 -41 61 -100 122 -160 163 -14 10 -35 36 -46 57 -12
24 -64 78 -133 137 -61 54 -148 134 -192 179 -56 57 -102 92 -153 119 -50 26
-101 66 -165 128 -127 124 -169 143 -366 164 l-151 17 -24 -23 c-23 -22 -29
-23 -90 -14 -76 11 -132 -3 -155 -38 -8 -11 -46 -42 -85 -69 -82 -55 -130
-103 -145 -143 -6 -15 -24 -36 -41 -45 -16 -9 -30 -25 -30 -35 0 -10 -10 -37
-22 -60 -12 -23 -21 -47 -20 -54 1 -6 -10 -21 -24 -32 -22 -17 -41 -21 -103
-21 -114 0 -119 -3 -138 -71 l-16 -59 -61 0 c-34 -1 -72 -7 -86 -15 -16 -9
-55 -14 -110 -15 -47 0 -100 -4 -118 -9 -24 -7 -32 -6 -32 3 0 17 45 58 61 56
30 -5 41 0 35 15 -3 10 3 19 17 26 19 9 22 17 19 42 -3 18 -1 29 3 25 4 -4 41
20 81 53 41 33 74 57 74 52 0 -4 12 9 27 30 14 20 30 37 34 37 5 0 21 18 35
40 15 22 33 40 40 40 24 0 -4 49 -28 50 -5 0 -8 -12 -8 -27 0 -22 -20 -48 -95
-121 -53 -51 -114 -101 -136 -112 -28 -15 -39 -27 -39 -43 0 -30 -9 -41 -46
-60 -55 -29 -94 -67 -94 -94 0 -18 -19 -44 -65 -88 -53 -51 -65 -69 -65 -95 0
-17 -6 -33 -14 -36 -23 -9 -28 -33 -5 -27 10 3 19 12 19 19 0 8 4 14 9 14 5 0
11 19 15 41 4 23 9 39 12 36 4 -3 18 5 32 19 15 13 30 24 35 24 4 0 12 10 17
23 7 18 9 13 9 -25 1 -42 -2 -48 -34 -67 -36 -21 -65 -71 -65 -111 0 -36 -27
-74 -67 -97 -22 -12 -67 -52 -101 -88 -50 -52 -68 -65 -93 -65 -34 0 -34 -3
18 74 18 26 33 52 33 57 0 5 10 9 21 9 21 0 88 64 111 104 12 22 -52 -25 -86
-63 -11 -12 -28 -21 -38 -21 -10 0 -22 -10 -27 -22 -5 -13 -20 -34 -34 -46
-14 -13 -31 -37 -37 -52 -11 -26 -15 -27 -53 -23 -23 3 -61 12 -84 20 -31 11
-66 14 -125 11 -73 -5 -91 -10 -153 -45 -38 -21 -94 -56 -123 -77 -47 -34
-152 -83 -152 -71 0 2 -8 53 -17 112 -26 162 -23 480 5 636 84 460 310 856
665 1162 330 285 724 453 1157 494 117 12 310 5 450 -15z m350 -1097 c39 -6
90 -22 133 -43 16 -8 35 -14 43 -14 16 0 154 -129 154 -145 0 -11 134 -95 151
-95 14 0 33 -17 97 -83 31 -32 85 -81 119 -108 35 -27 63 -56 63 -63 0 -8 10
-18 21 -21 34 -11 109 -85 131 -130 26 -52 47 -75 68 -75 18 0 150 -143 150
-162 0 -17 136 -147 166 -158 14 -6 44 -10 66 -10 l41 0 -8 -72 c-28 -288
-213 -696 -437 -963 -332 -396 -770 -642 -1283 -721 -146 -22 -421 -22 -570 0
-808 122 -1459 674 -1671 1415 l-27 95 28 24 c18 15 36 22 52 19 18 -3 36 7
76 44 29 27 58 49 65 49 7 0 28 11 46 25 45 34 99 55 142 55 49 0 207 -39 216
-53 4 -7 20 -10 37 -9 24 3 30 -1 38 -25 l10 -28 7 33 c6 24 13 32 30 32 29 0
66 27 66 48 0 10 33 41 77 72 42 30 85 63 95 73 10 10 24 15 30 11 8 -5 9 8 4
45 -8 58 3 81 36 81 11 0 18 5 16 12 -5 15 31 58 49 58 8 0 12 4 8 9 -3 6 -3
28 1 50 l6 39 62 11 c35 6 86 11 115 11 29 0 62 6 74 12 12 7 53 15 92 18 l70
5 7 50 c4 29 14 55 24 62 24 18 104 17 118 -1 6 -8 29 -16 51 -17 22 -2 46 -8
54 -13 10 -8 15 -8 19 2 7 21 74 3 97 -27 10 -14 33 -39 50 -55 16 -16 25 -27
19 -23 -7 4 -14 0 -18 -8 -8 -23 26 -37 40 -17 11 15 15 11 33 -31 11 -26 27
-50 36 -53 8 -4 15 -13 15 -20 0 -18 37 -93 57 -116 9 -10 13 -24 10 -32 -4
-9 2 -17 14 -21 30 -10 35 2 11 28 -12 12 -21 31 -20 42 1 11 -27 65 -62 120
-82 130 -93 144 -107 145 -6 0 -26 18 -43 40 -33 42 -85 64 -147 62 -18 -1
-33 2 -33 7 0 4 17 24 39 43 32 30 39 45 45 89 6 43 14 60 47 92 22 23 39 49
39 62 0 17 8 26 30 34 17 5 30 14 30 19 0 5 20 7 45 4 32 -3 45 -1 45 8 0 8
-9 11 -25 8 -30 -6 -34 11 -5 19 11 3 20 12 20 19 0 8 5 14 10 14 6 0 30 18
54 40 34 32 45 37 50 25 3 -8 12 -15 21 -15 18 0 19 12 3 28 -9 9 -6 12 13 12
14 0 29 -3 33 -7 11 -11 96 -31 90 -21 -3 4 2 8 10 8 9 0 16 6 16 14 0 8 6 17
13 20 12 5 135 1 197 -7z"/>
<path d="M3102 5418 c-21 -21 -14 -38 16 -37 15 1 44 -6 65 -15 21 -9 42 -14
47 -11 6 4 7 -7 3 -26 -5 -28 -4 -31 11 -26 14 6 16 3 11 -13 -4 -14 -2 -20 9
-20 9 0 13 -6 10 -14 -3 -7 2 -16 10 -19 9 -4 12 -14 9 -26 -3 -13 -1 -21 6
-21 7 0 9 -5 6 -10 -4 -6 -2 -17 4 -24 9 -10 8 -15 -3 -19 -9 -4 -12 -14 -9
-26 4 -15 -1 -23 -18 -29 -15 -6 -18 -11 -11 -16 18 -11 14 -26 -6 -26 -26 0
-34 -11 -21 -27 9 -10 6 -13 -15 -13 -17 0 -25 -4 -20 -11 3 -6 1 -15 -6 -19
-17 -11 -7 -24 43 -58 39 -27 51 -29 171 -35 75 -4 134 -12 140 -18 8 -8 -1
-10 -36 -5 -28 4 -49 3 -53 -4 -4 -6 5 -10 22 -10 15 -1 42 -7 58 -15 29 -15
29 -15 -25 -10 -50 5 -53 4 -36 -10 11 -8 28 -15 39 -15 10 0 16 -4 12 -10 -4
-6 -15 -6 -31 0 -14 6 -32 10 -41 10 -13 0 -13 -3 -3 -15 11 -13 8 -15 -19
-15 -34 0 -36 -2 -21 -31 14 -25 9 -24 -69 7 -93 37 -167 93 -163 122 3 17 -2
22 -20 23 -13 1 -27 0 -33 -1 -23 -6 -65 2 -139 27 -89 29 -120 55 -156 133
-16 35 -31 52 -51 59 -39 14 -36 29 7 37 29 5 49 0 104 -26 55 -26 76 -32 109
-27 38 5 40 4 30 -15 -7 -14 -7 -23 2 -34 18 -22 39 -17 39 9 0 13 14 36 30
52 47 45 39 72 -10 38 -24 -16 -25 -16 -9 3 9 10 27 39 39 64 12 25 33 57 47
72 14 14 23 34 21 45 -3 13 -19 -4 -58 -62 -63 -91 -131 -166 -137 -148 -5 13
48 132 76 172 21 30 29 77 11 66 -5 -3 -10 -13 -10 -21 0 -8 -15 -37 -34 -64
-19 -28 -38 -64 -41 -82 -10 -45 -27 -68 -48 -68 -10 0 -49 16 -87 37 -61 31
-74 35 -95 25 -14 -6 -25 -15 -25 -20 0 -5 -9 -20 -21 -33 l-21 -24 46 -3 46
-3 46 -80 c53 -92 66 -103 157 -130 37 -12 67 -26 67 -31 0 -6 16 -8 37 -6 33
4 45 -1 91 -39 29 -24 70 -52 91 -62 20 -11 43 -27 50 -35 46 -55 261 48 261
126 0 46 -33 59 -177 67 -98 5 -134 11 -155 25 -16 10 -28 21 -28 24 0 2 18
24 39 47 61 66 74 133 46 240 -23 87 -55 130 -125 165 -66 33 -80 36 -98 18z"/>
<path d="M3240 4850 c-9 -16 -8 -22 6 -27 20 -8 49 9 49 28 0 23 -42 23 -55
-1z"/>
<path d="M2890 4546 c-14 -8 -47 -39 -73 -70 -27 -32 -60 -59 -75 -62 -15 -4
-38 -15 -51 -25 -20 -16 -21 -20 -7 -25 8 -3 23 1 31 10 9 9 25 16 35 16 21 0
106 69 102 83 -3 10 27 47 39 47 4 0 5 -9 2 -20 -6 -21 3 -25 26 -11 9 6 10
11 2 15 -6 4 -11 14 -11 23 0 11 6 14 27 8 31 -7 69 -34 131 -93 25 -23 49
-41 54 -40 17 6 -41 74 -94 110 -63 44 -103 54 -138 34z"/>
<path d="M2630 4346 c0 -7 -16 -26 -36 -41 -22 -17 -32 -31 -26 -37 11 -11
112 60 112 80 0 6 -11 12 -25 12 -15 0 -25 -6 -25 -14z"/>
<path d="M2526 4251 c-4 -5 3 -7 14 -4 23 6 26 13 6 13 -8 0 -17 -4 -20 -9z"/>
<path d="M4092 3788 c5 -15 37 -18 41 -3 1 6 -9 12 -22 13 -16 3 -22 -1 -19
-10z"/>
<path d="M2287 3701 c7 -28 31 -34 43 -11 15 27 13 30 -19 30 -24 0 -28 -4
-24 -19z"/>
<path d="M2940 3709 c0 -5 5 -7 10 -4 6 3 10 8 10 11 0 2 -4 4 -10 4 -5 0 -10
-5 -10 -11z"/>
<path d="M3010 3646 c0 -15 24 -28 34 -19 7 7 -13 33 -25 33 -5 0 -9 -6 -9
-14z"/>
<path d="M4160 3565 c-16 -20 -9 -49 15 -54 15 -2 17 0 9 10 -6 8 -9 24 -8 37
2 26 0 27 -16 7z"/>
<path d="M3070 3557 c0 -7 9 -18 20 -25 20 -12 25 -6 14 22 -7 19 -34 21 -34
3z"/>
<path d="M4606 3535 c-3 -8 -1 -15 4 -15 6 0 10 7 10 15 0 8 -2 15 -4 15 -2 0
-6 -7 -10 -15z"/>
<path d="M1331 3176 c-8 -9 -11 -19 -7 -23 9 -9 29 13 24 27 -2 8 -8 7 -17 -4z"/>
<path d="M1395 3170 c-18 -19 -17 -20 8 -20 17 0 27 5 27 14 0 24 -16 27 -35
6z"/>
<path d="M4290 3126 c0 -8 6 -16 13 -19 9 -3 9 -7 -1 -19 -10 -12 -10 -18 -1
-23 8 -6 7 -10 -2 -16 -11 -7 -9 -9 6 -9 11 0 26 4 34 9 12 8 12 13 -3 36 -10
15 -15 33 -12 41 3 9 -1 14 -14 14 -11 0 -20 -6 -20 -14z"/>
<path d="M2293 3082 c-20 -2 -37 -11 -43 -23 -15 -26 -60 -26 -60 1 0 18 -7
20 -69 20 -65 0 -70 -2 -73 -22 -5 -35 -45 -37 -54 -3 -6 25 -9 26 -73 23
l-66 -3 -7 -70 c-19 -197 -50 -722 -51 -885 l-2 -185 337 -3 337 -2 6 21 c8
24 2 120 -21 358 -8 84 -13 155 -11 157 8 8 306 53 392 59 143 10 494 -22 629
-56 l39 -11 -7 -111 c-4 -62 -11 -159 -17 -217 -6 -58 -9 -125 -7 -150 l3 -45
182 -8 c100 -5 255 -5 345 0 l163 8 -3 70 c-7 168 -52 752 -73 950 -12 112
-20 125 -81 125 -28 0 -46 -7 -64 -25 -29 -29 -52 -32 -61 -7 -10 26 -23 32
-75 32 -44 0 -78 -17 -78 -41 0 -5 -11 -9 -25 -9 -18 0 -25 5 -25 19 0 22 -19
31 -66 31 -50 0 -74 -16 -74 -48 0 -15 -3 -44 -6 -64 -5 -31 -11 -38 -29 -38
-50 0 -85 -12 -85 -30 0 -33 -12 -50 -35 -50 -23 0 -35 17 -35 50 0 22 -19 30
-73 30 -53 0 -64 -8 -69 -45 -2 -24 -8 -31 -29 -33 -23 -3 -27 1 -33 31 -7 37
-24 47 -83 47 -48 0 -62 -9 -69 -46 -5 -29 -10 -34 -35 -34 -26 0 -29 3 -29
34 0 37 -15 46 -82 46 -42 0 -68 -21 -68 -56 0 -20 -5 -24 -30 -24 -27 0 -30
3 -30 34 0 37 -15 46 -77 46 -48 0 -62 -9 -69 -46 -4 -20 -13 -36 -25 -39 -28
-9 -39 2 -39 40 0 36 -2 37 -90 48 -11 2 -17 20 -21 65 -3 34 -8 65 -11 67
-11 11 -64 20 -95 17z m-323 -43 c0 -17 -5 -20 -37 -17 -27 2 -39 8 -41 21 -3
14 4 17 37 17 35 0 41 -3 41 -21z m350 1 c0 -13 -7 -20 -19 -20 -25 0 -38 20
-20 31 23 15 39 10 39 -11z m-152 -2 c-3 -7 -25 -14 -51 -16 -37 -2 -47 0 -47
12 0 12 12 16 51 16 36 0 49 -4 47 -12z m192 -4 c0 -8 -4 -12 -10 -9 -5 3 -10
10 -10 16 0 5 5 9 10 9 6 0 10 -7 10 -16z m1300 1 c0 -16 -64 -22 -74 -6 -9
14 5 21 41 21 23 0 33 -5 33 -15z m200 0 c0 -11 -12 -15 -50 -15 -38 0 -50 4
-50 15 0 11 12 15 50 15 38 0 50 -4 50 -15z m148 -2 c2 -8 -6 -13 -22 -13 -17
0 -26 5 -26 16 0 19 41 16 48 -3z m50 -2 c3 -8 -1 -12 -9 -9 -7 2 -15 10 -17
17 -3 8 1 12 9 9 7 -2 15 -10 17 -17z m-2108 -51 c0 -28 -2 -30 -40 -30 -38 0
-40 2 -40 30 0 28 2 30 40 30 38 0 40 -2 40 -30z m131 20 c14 0 19 -7 19 -25
0 -24 -2 -25 -65 -25 l-65 0 0 31 0 32 46 -7 c26 -3 55 -6 65 -6z m138 4 c24
-5 31 -12 31 -30 0 -23 -3 -24 -70 -24 -67 0 -70 1 -70 23 0 13 3 27 7 30 8 9
61 9 102 1z m135 0 c9 -3 16 -17 16 -30 0 -22 -4 -24 -55 -24 -51 0 -55 2 -55
23 0 13 3 27 7 30 8 9 66 9 87 1z m1286 -34 c0 -28 -2 -30 -40 -30 -38 0 -40
2 -40 30 0 28 2 30 40 30 38 0 40 -2 40 -30z m148 3 c-3 -27 -6 -28 -65 -31
l-63 -3 0 31 0 30 66 0 65 0 -3 -27z m147 -3 c0 -29 -23 -36 -92 -25 -37 5
-43 9 -43 31 0 24 1 25 68 22 64 -3 67 -4 67 -28z m128 8 c9 -32 1 -38 -54
-38 -35 0 -51 4 -55 15 -13 32 4 45 55 45 42 0 49 -3 54 -22z m-2035 -75 c-3
-27 -5 -28 -68 -28 -63 0 -65 1 -68 28 l-3 27 71 0 71 0 -3 -27z m142 -3 l0
-31 -62 3 c-60 3 -63 4 -66 31 l-3 27 65 0 66 0 0 -30z m150 0 l0 -30 -65 0
-65 0 0 30 0 30 65 0 65 0 0 -30z m58 -3 c3 -22 -1 -27 -17 -27 -17 0 -21 6
-21 31 0 24 4 30 18 27 10 -2 18 -14 20 -31z m1296 27 c40 -6 46 -10 46 -30 0
-23 -3 -24 -70 -24 -67 0 -70 1 -70 23 0 39 9 42 94 31z m186 -24 l0 -30 -65
0 c-61 0 -65 1 -65 23 0 34 7 37 72 37 58 0 58 0 58 -30z m150 0 l0 -30 -65 0
-65 0 0 30 0 30 65 0 65 0 0 -30z m54 8 c9 -35 8 -38 -14 -38 -14 0 -20 7 -20
23 0 41 24 51 34 15z m-1599 -28 c0 -9 -11 -16 -27 -18 -23 -3 -28 1 -28 18 0
17 5 21 28 18 16 -2 27 -9 27 -18z m235 0 c0 -15 -7 -20 -29 -20 -16 0 -31 6
-34 14 -8 19 1 26 35 26 21 0 28 -5 28 -20z m210 0 c0 -17 -7 -20 -50 -20 -43
0 -50 3 -50 20 0 17 7 20 50 20 43 0 50 -3 50 -20z m158 -3 c3 -14 -1 -18 -20
-15 -12 2 -24 11 -26 21 -3 14 1 18 20 15 12 -2 24 -11 26 -21z m48 12 c3 -6
1 -16 -5 -22 -9 -9 -14 -8 -21 3 -5 8 -10 18 -10 23 0 11 28 8 36 -4z m212
-11 c3 -15 -4 -18 -42 -18 -40 0 -46 3 -46 21 0 18 5 20 42 17 31 -2 44 -8 46
-20z m192 2 c0 -17 -7 -20 -40 -20 -33 0 -40 3 -40 20 0 17 7 20 40 20 33 0
40 -3 40 -20z m-1570 -50 c0 -29 -2 -30 -45 -30 -41 0 -45 2 -45 24 0 25 13
31 68 35 18 1 22 -4 22 -29z m131 20 c14 0 19 -7 19 -25 0 -24 -2 -25 -65 -25
l-65 0 0 31 0 32 46 -7 c26 -3 55 -6 65 -6z m132 4 c31 -6 37 -11 37 -30 0
-23 -3 -24 -70 -24 -67 0 -70 1 -70 23 0 13 3 27 7 30 8 9 46 9 96 1z m165 -6
c7 -7 12 -20 12 -30 0 -15 -9 -18 -65 -18 -61 0 -65 1 -65 23 0 13 3 27 7 30
11 12 98 8 111 -5z m310 -35 l3 -33 -65 0 c-57 0 -66 2 -66 18 0 23 55 52 95
49 26 -2 30 -6 33 -34z m435 17 c27 -32 22 -50 -17 -50 -84 0 -118 24 -84 58
20 20 81 15 101 -8z m173 -25 c-6 -25 -9 -26 -69 -23 -47 2 -62 7 -62 18 0 10
12 16 33 18 17 2 32 7 32 12 0 11 52 18 64 9 5 -4 6 -19 2 -34z m344 15 c0
-29 -2 -30 -45 -30 -43 0 -45 1 -45 30 0 29 2 30 45 30 43 0 45 -1 45 -30z
m148 3 c-3 -27 -6 -28 -65 -31 l-63 -3 0 31 0 30 66 0 65 0 -3 -27z m150 0
c-3 -32 -25 -39 -95 -28 -37 5 -43 10 -43 31 0 23 2 24 71 24 l70 0 -3 -27z
m132 2 c0 -24 -3 -25 -59 -25 -57 0 -58 1 -53 25 4 23 9 25 58 25 51 0 54 -1
54 -25z m-1580 5 c0 -5 11 -10 25 -10 18 0 25 -5 25 -19 0 -18 -5 -19 -57 -14
-32 3 -61 11 -65 17 -17 25 -7 36 32 36 22 0 40 -4 40 -10z m350 -20 c0 -29
-1 -30 -49 -30 -62 0 -81 7 -81 31 0 14 9 19 48 22 26 2 55 4 65 5 13 2 17 -5
17 -28z m123 17 c21 -2 27 -7 27 -24 0 -19 -5 -23 -34 -23 -69 0 -96 11 -96
37 0 24 2 25 38 19 20 -4 49 -8 65 -9z m429 -7 c42 0 48 -3 48 -20 0 -20 -4
-21 -62 -14 -35 4 -65 8 -66 10 -2 1 -1 12 3 24 5 16 10 19 18 11 6 -6 33 -11
59 -11z m131 -4 c-9 -44 -63 -44 -63 0 0 21 5 24 34 24 30 0 33 -2 29 -24z
m-1643 -72 c0 -13 -4 -24 -10 -24 -5 0 -10 14 -10 31 0 17 4 28 10 24 6 -3 10
-17 10 -31z m148 3 l3 -28 -68 3 c-66 3 -68 4 -71 31 l-3 28 68 -3 c66 -3 68
-4 71 -31z m142 3 l0 -31 -62 3 c-60 3 -63 4 -66 31 l-3 27 65 0 66 0 0 -30z
m150 0 l0 -30 -65 0 -65 0 0 30 0 30 65 0 65 0 0 -30z m70 0 c0 -25 -4 -30
-25 -30 -21 0 -25 5 -25 30 0 25 4 30 25 30 21 0 25 -5 25 -30z m1298 20 c17
0 22 -6 22 -25 0 -24 -2 -25 -65 -25 -61 0 -65 1 -65 23 0 33 10 40 50 33 19
-3 45 -6 58 -6z m172 -20 l0 -30 -65 0 c-61 0 -65 1 -65 23 0 34 7 37 72 37
58 0 58 0 58 -30z m150 0 l0 -30 -65 0 -65 0 0 30 0 30 65 0 65 0 0 -30z m64
15 c20 -21 10 -45 -20 -45 -18 0 -24 5 -24 23 0 39 18 48 44 22z m-1606 -27
c3 -24 0 -28 -22 -28 -22 0 -26 4 -26 31 0 26 3 30 23 27 16 -2 23 -11 25 -30z
m150 -1 l3 -28 -68 3 c-66 3 -68 4 -71 31 l-3 28 68 -3 c66 -3 68 -4 71 -31z
m150 1 l3 -28 -65 0 c-70 0 -78 5 -69 39 5 20 11 22 67 19 58 -3 61 -4 64 -30z
m152 2 l0 -31 -67 3 c-66 3 -68 4 -71 31 l-3 27 70 0 71 0 0 -30z m150 0 l0
-31 -67 3 c-66 3 -68 4 -71 31 l-3 27 70 0 71 0 0 -30z m150 0 l0 -30 -65 0
-65 0 0 30 0 30 65 0 65 0 0 -30z m150 0 l0 -30 -65 0 -65 0 0 30 0 30 65 0
65 0 0 -30z m145 20 c3 -6 3 -19 0 -30 -5 -17 -15 -20 -66 -20 -59 0 -59 0
-59 30 0 30 0 30 59 30 33 0 63 -5 66 -10z m55 -15 c0 -15 -18 -30 -27 -22 -2
3 -2 15 2 26 7 23 25 19 25 -4z m-1622 -90 c-2 -2 -24 -6 -50 -10 l-48 -7 0
30 c0 30 2 31 48 34 43 3 47 1 50 -20 2 -13 2 -25 0 -27z m118 45 c30 0 34 -3
34 -25 0 -24 -2 -25 -65 -25 l-65 0 0 31 c0 30 2 31 31 25 17 -3 47 -6 65 -6z
m150 0 c30 0 34 -3 34 -25 0 -24 -3 -25 -60 -25 -33 0 -63 0 -67 -1 -11 0 -16
29 -9 48 5 11 14 14 37 9 18 -3 47 -6 65 -6z m165 0 c14 0 19 -7 19 -25 0 -24
-2 -25 -70 -25 -67 0 -70 1 -70 23 0 34 10 40 59 33 24 -3 52 -6 62 -6z m609
-35 c0 -32 -3 -35 -27 -35 -16 0 -45 3 -65 6 -31 6 -38 11 -38 30 0 21 5 23
58 27 31 2 60 4 65 5 4 1 7 -14 7 -33z m650 5 c0 -29 -1 -30 -50 -30 -46 0
-50 2 -50 23 0 33 7 37 57 37 41 0 43 -1 43 -30z m148 3 c-3 -27 -6 -28 -65
-31 l-63 -3 0 31 0 30 66 0 65 0 -3 -27z m150 0 c-3 -25 -7 -28 -47 -31 -67
-5 -91 4 -91 33 0 24 2 25 71 25 l70 0 -3 -27z m147 17 c3 -6 3 -19 0 -30 -5
-17 -15 -20 -66 -20 -61 0 -78 12 -65 45 6 18 121 22 131 5z m-1545 -30 c0
-29 -2 -30 -42 -30 -50 0 -63 7 -72 38 -7 21 -5 22 53 22 l61 0 0 -30z m150 0
l0 -30 -65 0 -65 0 0 30 0 30 65 0 65 0 0 -30z m150 0 l0 -30 -65 0 -65 0 0
30 0 30 65 0 65 0 0 -30z m308 3 c-3 -27 -5 -28 -68 -28 -63 0 -65 1 -68 28
l-3 27 71 0 71 0 -3 -27z m152 3 c0 -34 -12 -39 -81 -31 -54 6 -59 9 -59 31 0
23 3 24 70 24 68 0 70 -1 70 -24z m150 0 c0 -34 -9 -37 -79 -30 -56 6 -61 9
-61 30 0 23 3 24 70 24 68 0 70 -1 70 -24z m66 8 c-3 -9 -6 -20 -6 -25 0 -5
-11 -9 -25 -9 -20 0 -25 5 -25 25 0 21 5 25 31 25 24 0 30 -3 25 -16z m-1641
-74 c0 -13 -6 -25 -12 -27 -9 -3 -13 6 -13 27 0 21 4 30 13 28 6 -3 12 -15 12
-28z m153 -3 l3 -28 -68 3 c-66 3 -68 4 -71 31 l-3 28 68 -3 c66 -3 68 -4 71
-31z m142 3 l0 -31 -62 3 c-60 3 -63 4 -66 31 l-3 27 65 0 66 0 0 -30z m150 0
l0 -30 -65 0 -65 0 0 30 0 30 65 0 65 0 0 -30z m84 15 c10 -26 -5 -45 -35 -45
-26 0 -29 4 -29 30 0 26 3 30 29 30 16 0 31 -6 35 -15z m1311 -14 c0 -19 -7
-26 -30 -33 -38 -10 -95 0 -102 18 -11 29 18 45 76 42 52 -3 56 -5 56 -27z
m145 -1 l0 -30 -65 0 c-61 0 -65 1 -65 23 0 34 7 37 72 37 58 0 58 0 58 -30z
m150 0 l0 -30 -65 0 -65 0 0 30 0 30 65 0 65 0 0 -30z m80 4 c14 -35 14 -34
-25 -34 -32 0 -35 2 -35 30 0 25 4 30 25 30 18 0 28 -7 35 -26z m-1622 -8 c5
-26 -16 -45 -28 -26 -5 8 -10 23 -10 33 0 24 34 18 38 -7z m152 -6 l0 -30 -70
0 c-67 0 -70 1 -70 23 0 34 6 37 77 37 l63 0 0 -30z m150 0 l0 -30 -70 0 c-67
0 -70 1 -70 24 0 30 10 34 83 35 57 1 57 1 57 -29z m150 0 l0 -30 -70 0 c-67
0 -70 1 -70 24 0 27 14 32 93 35 46 1 47 0 47 -29z m150 0 l0 -30 -65 0 c-61
0 -65 1 -65 23 0 34 7 37 72 37 58 0 58 0 58 -30z m150 0 l0 -30 -65 0 -65 0
0 30 0 30 65 0 65 0 0 -30z m150 0 l0 -30 -65 0 -65 0 0 30 0 30 65 0 65 0 0
-30z m140 0 l0 -30 -60 0 -60 0 0 30 0 30 60 0 60 0 0 -30z m60 5 c0 -18 -5
-25 -20 -25 -15 0 -20 7 -20 25 0 18 5 25 20 25 15 0 20 -7 20 -25z m-1620
-71 l0 -35 -52 3 c-49 3 -53 5 -56 30 -3 26 -1 27 50 31 29 2 54 4 56 5 1 1 2
-14 2 -34z m108 26 c37 0 42 -3 42 -24 0 -20 -6 -24 -46 -30 -82 -11 -84 -10
-84 30 0 33 2 36 23 30 12 -3 41 -6 65 -6z m143 0 c45 0 49 -2 49 -25 0 -19
-6 -25 -33 -30 -55 -11 -101 -2 -105 18 -6 28 6 50 24 43 9 -3 38 -6 65 -6z
m157 0 c38 0 42 -2 42 -24 0 -22 -5 -25 -55 -31 -67 -9 -85 -3 -85 28 0 30 10
39 35 33 11 -3 39 -6 63 -6z m181 -16 c10 -9 -16 -22 -56 -29 -29 -4 -43 -3
-43 4 0 6 0 14 -1 19 -1 17 83 23 100 6z m1101 -14 c0 -30 -1 -30 -55 -30 -51
0 -55 2 -55 23 0 33 7 37 62 37 47 0 48 -1 48 -30z m148 -2 l3 -28 -65 0 -66
0 0 30 0 31 63 -3 c59 -3 62 -4 65 -30z m152 2 l0 -31 -67 3 c-66 3 -68 4 -71
31 l-3 27 70 0 71 0 0 -30z m150 0 l0 -30 -65 0 c-49 0 -67 4 -71 15 -14 34 3
45 71 45 l65 0 0 -30z m-647 2 c-4 -17 -10 -17 -63 -8 -83 16 -85 26 -3 26 64
0 71 -2 66 -18z m65 -4 c-2 -15 -10 -23 -23 -23 -13 0 -21 8 -23 23 -3 18 1
22 23 22 22 0 26 -4 23 -22z m-1638 -68 c0 -20 -5 -30 -15 -30 -10 0 -15 10
-15 30 0 20 5 30 15 30 10 0 15 -10 15 -30z m158 -3 l3 -28 -68 3 c-66 3 -68
4 -71 31 l-3 28 68 -3 c66 -3 68 -4 71 -31z m142 3 l0 -31 -62 3 c-60 3 -63 4
-66 31 l-3 27 65 0 66 0 0 -30z m150 0 l0 -30 -65 0 -65 0 0 30 0 30 65 0 65
0 0 -30z m90 16 c0 -8 3 -21 6 -30 5 -13 -2 -16 -35 -16 -39 0 -41 2 -41 30 0
28 3 30 35 30 24 0 35 -5 35 -14z m1160 -22 c0 -19 -5 -24 -25 -24 -29 0 -33
21 -9 44 20 20 34 12 34 -20z m148 4 l3 -28 -70 0 c-68 0 -71 1 -71 23 0 34 8
38 75 35 57 -3 60 -4 63 -30z m142 -4 l0 -37 -37 7 c-21 3 -48 6 -61 6 -27 0
-39 24 -22 45 8 10 31 15 66 15 l54 0 0 -36z m150 6 l0 -30 -65 0 -65 0 0 30
0 30 65 0 65 0 0 -30z m76 22 c6 -4 14 -17 18 -29 7 -21 4 -23 -33 -23 -36 0
-41 3 -41 23 0 13 3 27 7 30 8 9 35 9 49 -1z m-1986 -98 c0 -17 -6 -24 -19
-24 -10 0 -39 -3 -65 -6 l-46 -7 0 34 0 34 65 -3 c61 -4 65 -5 65 -28z m101
26 c46 0 49 -2 49 -25 0 -29 -24 -38 -91 -33 -33 2 -45 8 -47 21 -6 28 6 50
24 43 9 -3 38 -6 65 -6z m199 -31 l0 -30 -67 3 c-56 2 -68 6 -71 21 -7 37 3
42 72 39 66 -4 66 -4 66 -33z m-450 0 l0 -30 -57 7 c-32 3 -60 8 -61 9 -2 2
-1 13 3 24 5 18 14 21 61 21 54 0 54 0 54 -31z m1690 1 l0 -30 -60 0 c-33 0
-60 3 -60 8 0 4 3 17 6 30 6 19 13 22 60 22 53 0 54 0 54 -30z m148 -2 l3 -28
-65 0 -66 0 0 30 0 31 63 -3 c59 -3 62 -4 65 -30z m152 2 l0 -31 -67 3 c-66 3
-68 4 -71 31 l-3 27 70 0 71 0 0 -30z m150 0 l0 -31 -67 3 c-66 3 -68 4 -71
31 l-3 27 70 0 71 0 0 -30z m-2212 -73 c3 -23 0 -27 -22 -27 -21 0 -26 5 -26
23 0 13 3 27 7 31 15 14 38 0 41 -27z m150 0 l3 -28 -68 3 c-66 3 -68 4 -71
31 l-3 28 68 -3 c66 -3 68 -4 71 -31z m142 3 l0 -30 -60 0 c-45 0 -62 4 -66
15 -13 34 3 45 66 45 l60 0 0 -30z m150 0 l0 -30 -65 0 -65 0 0 30 0 30 65 0
65 0 0 -30z m104 14 c14 -36 7 -44 -39 -44 -43 0 -45 1 -45 30 0 28 2 30 39
30 26 0 41 -5 45 -16z m1136 -3 c16 -32 12 -41 -20 -41 -21 0 -28 4 -25 15 3
8 7 22 10 30 6 21 22 19 35 -4z m155 -13 c0 -16 -3 -28 -7 -28 -5 0 -35 0 -68
0 -57 0 -60 1 -60 24 0 22 5 25 48 29 81 7 87 5 87 -25z m145 2 l0 -31 -62 3
c-51 2 -63 6 -66 21 -4 21 28 36 86 36 40 1 42 0 42 -29z m150 0 l0 -30 -65 0
-65 0 0 30 0 30 65 0 65 0 0 -30z m81 20 c24 0 29 -4 29 -25 0 -23 -4 -25 -45
-25 -44 0 -45 1 -45 31 0 24 3 30 16 25 9 -3 29 -6 45 -6z m-2163 -66 c15 -4
22 -14 22 -30 0 -23 -3 -24 -64 -24 -62 0 -63 1 -59 24 6 30 51 43 101 30z
m172 -29 c0 -24 -2 -25 -65 -25 -63 0 -65 1 -65 25 0 24 2 25 65 25 63 0 65
-1 65 -25z m150 0 c0 -24 -2 -25 -70 -25 -68 0 -70 1 -70 25 0 24 2 25 70 25
68 0 70 -1 70 -25z m150 0 c0 -24 -2 -25 -69 -25 -67 0 -68 0 -63 25 4 24 8
25 68 25 62 0 64 -1 64 -25z m33 -24 c-9 -12 -25 20 -18 36 7 16 9 15 15 -7 4
-14 5 -27 3 -29z m1207 19 l0 -30 -65 0 -65 0 0 30 0 30 65 0 65 0 0 -30z
m147 14 c9 -25 -24 -44 -79 -44 -47 0 -48 1 -48 30 l0 30 60 0 c47 0 62 -4 67
-16z m153 -2 c0 -30 -22 -42 -77 -42 -55 0 -72 13 -59 45 4 11 22 15 71 15 56
0 65 -3 65 -18z m150 -6 c0 -29 -16 -36 -81 -36 -51 0 -68 13 -55 45 4 11 22
15 71 15 62 0 65 -1 65 -24z m-2218 -77 c-4 -24 -9 -29 -26 -27 -15 2 -22 11
-24 31 -3 24 0 27 26 27 26 0 28 -2 24 -31z m158 17 c0 -37 -12 -46 -60 -46
-64 0 -80 7 -80 36 0 23 3 24 70 24 54 0 70 -3 70 -14z m140 -16 l0 -31 -62 3
c-60 3 -63 4 -66 31 l-3 27 65 0 66 0 0 -30z m160 0 l0 -30 -70 0 -70 0 0 30
0 30 70 0 70 0 0 -30z m110 0 c0 -29 -1 -30 -50 -30 -49 0 -50 1 -50 30 0 29
1 30 50 30 49 0 50 -1 50 -30z m1122 5 c6 -30 2 -35 -29 -35 -17 0 -23 6 -23
23 0 28 7 37 31 37 10 0 19 -10 21 -25z m151 3 c9 -33 1 -38 -69 -38 -60 0
-64 1 -64 23 0 34 7 37 71 37 50 0 57 -3 62 -22z m147 -8 l0 -30 -65 0 c-61 0
-65 1 -65 23 0 34 7 37 72 37 58 0 58 0 58 -30z m150 0 l0 -30 -65 0 -65 0 0
30 0 30 65 0 65 0 0 -30z m114 14 c14 -37 7 -44 -44 -44 -49 0 -50 1 -50 30 0
29 2 30 44 30 31 0 46 -5 50 -16z m-2174 -84 l0 -30 -65 0 c-61 0 -65 1 -65
23 0 34 7 37 72 37 58 0 58 0 58 -30z m148 -2 l3 -28 -65 0 -66 0 0 30 0 31
63 -3 c59 -3 62 -4 65 -30z m136 26 c9 -3 16 -17 16 -30 0 -23 -3 -24 -70 -24
l-70 0 0 30 c0 30 1 30 54 30 30 0 61 -3 70 -6z m166 -24 l0 -30 -70 0 -70 0
0 30 0 30 70 0 70 0 0 -30z m50 -6 c0 -17 -6 -24 -18 -24 -15 0 -18 6 -14 29
5 36 32 31 32 -5z m1190 -4 l0 -30 -65 0 -65 0 0 30 0 30 65 0 65 0 0 -30z
m150 6 c0 -19 -6 -24 -37 -30 -21 -3 -50 -6 -65 -6 -24 0 -28 4 -28 30 l0 30
65 0 c62 0 65 -1 65 -24z m148 -3 c-3 -27 -6 -28 -64 -31 l-62 -3 -4 31 -5 30
69 0 69 0 -3 -27z m152 3 c0 -34 -13 -39 -76 -31 -49 6 -54 9 -54 31 0 23 3
24 65 24 62 0 65 -1 65 -24z m50 -2 c0 -33 -33 -30 -38 4 -3 17 2 22 17 22 16
0 21 -6 21 -26z m-2262 -71 c-2 -22 -9 -29 -30 -31 -20 -2 -28 1 -28 12 0 8
-3 21 -6 30 -5 13 1 16 31 16 34 0 36 -2 33 -27z m152 2 c0 -19 -6 -25 -33
-30 -18 -4 -49 -5 -68 -3 -29 2 -34 7 -37 31 l-3 27 70 0 c69 0 71 -1 71 -25z
m140 -5 l0 -30 -60 0 c-45 0 -62 4 -66 15 -13 34 3 45 66 45 l60 0 0 -30z
m150 0 l0 -30 -65 0 -65 0 0 30 0 30 65 0 65 0 0 -30z m130 6 c0 -22 -6 -26
-44 -31 -53 -8 -66 -2 -66 31 0 23 3 24 55 24 52 0 55 -1 55 -24z m1110 -6 c0
-27 -3 -30 -30 -30 -25 0 -30 4 -30 23 0 30 7 37 37 37 19 0 23 -5 23 -30z
m153 8 c9 -33 1 -38 -69 -38 -60 0 -64 1 -64 23 0 34 7 37 71 37 50 0 57 -3
62 -22z m147 -8 l0 -30 -65 0 c-61 0 -65 1 -65 23 0 34 7 37 72 37 58 0 58 0
58 -30z m150 0 l0 -30 -65 0 -65 0 0 30 0 30 65 0 65 0 0 -30z m128 -2 c3 -28
2 -28 -52 -28 -56 0 -56 0 -56 31 l0 30 53 -3 c48 -3 52 -5 55 -30z"/>
<path d="M4505 864 c-401 -211 -855 -349 -1299 -394 -188 -20 -506 -8 -694 24
-383 67 -698 165 -1035 322 -87 41 -164 74 -170 74 -10 -1 -217 -307 -217
-322 0 -13 193 -120 301 -169 550 -245 1055 -360 1584 -360 563 -1 1009 105
1589 377 217 102 336 168 336 187 -1 15 -232 330 -245 333 -6 1 -73 -31 -150
-72z m-105 -128 c0 -13 -13 -40 -30 -61 -16 -21 -30 -41 -30 -44 0 -3 28 -21
63 -40 l63 -34 47 21 c68 30 63 55 -5 27 -23 -9 -24 12 -2 43 10 15 25 22 49
22 44 0 125 -35 125 -55 0 -16 -114 -76 -266 -140 -89 -37 -92 -40 -98 -75 -7
-47 -41 -90 -70 -90 -28 0 -66 37 -45 43 85 24 98 43 55 82 -30 28 -36 85 -10
105 13 11 20 9 46 -17 30 -30 30 -30 69 -15 21 8 39 18 39 23 0 4 -22 21 -50
38 -27 17 -50 38 -50 46 0 39 67 145 91 145 5 0 9 -11 9 -24z m-2904 -3 c-20
-62 -95 -218 -108 -227 -32 -20 -30 4 12 106 38 94 67 138 92 138 5 0 7 -8 4
-17z m247 -101 c15 -16 15 -19 -2 -29 -15 -9 -23 -9 -37 2 -15 11 -16 15 -5
29 17 20 24 20 44 -2z m-129 -18 c3 -9 6 -31 6 -49 0 -31 4 -36 46 -55 54 -23
54 -23 54 -10 0 5 -14 17 -31 26 l-32 16 21 21 c30 30 65 11 94 -50 16 -34 35
-55 63 -70 49 -28 55 -28 55 -5 0 11 9 27 21 37 20 19 20 19 17 -45 l-3 -65
-35 3 c-19 2 -91 27 -160 56 l-125 53 -35 -29 c-46 -38 -85 -37 -105 2 -17 33
-20 60 -5 60 5 0 13 -7 18 -16 5 -9 24 -16 43 -17 37 -2 37 0 23 70 -5 26 -1
37 19 57 30 30 42 32 51 10z m260 -63 c14 -16 15 -20 2 -30 -11 -9 -20 -10
-35 -1 -24 12 -26 21 -9 38 16 16 22 15 42 -7z m241 -54 c21 -16 13 -37 -14
-37 -26 0 -44 23 -29 38 15 15 20 15 43 -1z m84 -43 c-15 -18 -33 -18 -49 1
-10 12 -10 18 0 30 10 12 15 12 36 -2 19 -12 22 -19 13 -29z m151 -10 c11 -12
11 -18 -1 -30 -13 -12 -18 -12 -34 -1 -11 9 -16 20 -12 31 8 20 31 21 47 0z
m1793 -17 c30 -35 18 -60 -38 -78 -27 -9 -77 -33 -109 -53 -117 -71 -275 -118
-340 -102 -23 6 -26 12 -26 46 0 43 14 54 23 19 5 -20 11 -21 51 -16 60 9 206
65 213 83 3 8 0 20 -6 28 -14 16 -4 46 15 46 7 0 21 -12 30 -26 14 -20 22 -24
43 -19 34 9 51 23 51 44 0 9 7 27 16 39 18 27 49 22 77 -11z m-2069 7 c3 -9 6
-29 6 -45 0 -18 5 -29 14 -29 8 0 21 -3 30 -6 12 -5 16 0 16 19 0 13 6 30 14
37 12 9 17 5 26 -29 12 -45 26 -55 88 -66 50 -8 59 10 12 26 -36 13 -38 26 -5
41 30 13 67 -7 89 -51 16 -29 62 -57 115 -67 30 -6 31 -5 31 29 0 19 7 40 15
47 12 10 16 8 25 -15 14 -36 13 -88 -2 -103 -19 -19 -78 -14 -199 18 -63 17
-151 39 -197 51 l-83 20 -29 -31 c-51 -54 -120 -37 -120 30 0 21 1 22 25 6 13
-9 34 -16 45 -16 24 0 38 26 21 43 -14 14 -14 49 1 82 13 28 52 35 62 9z
m1300 -17 c16 -12 16 -14 2 -26 -17 -15 -56 -6 -56 13 0 28 25 34 54 13z m463
-78 c-14 -23 -18 -23 -42 -5 -16 12 -17 16 -6 29 10 13 18 14 36 5 20 -9 22
-13 12 -29z m-47 -19 c0 -19 -29 -31 -49 -20 -24 12 -26 21 -10 37 12 12 59
-2 59 -17z m-620 -36 l12 -34 94 0 c74 0 94 3 94 14 0 19 -27 28 -66 20 -38
-7 -42 1 -18 34 9 13 25 22 42 22 25 0 45 -10 134 -68 39 -25 54 -57 31 -66
-8 -3 -150 -9 -317 -13 l-302 -6 -17 -29 c-34 -59 -122 -57 -153 4 -8 16 -14
31 -12 33 2 2 24 -3 49 -12 52 -19 75 -14 91 22 9 21 8 28 -7 45 -12 13 -15
27 -11 45 8 33 17 32 43 -9 30 -47 113 -64 96 -21 -7 20 5 65 17 65 5 0 19
-18 30 -40 20 -39 21 -40 76 -40 51 0 54 1 44 19 -7 14 -7 27 2 45 14 32 32
21 48 -30z m-748 -98 c13 -10 15 -15 6 -24 -16 -16 -33 -15 -47 1 -8 10 -7 17
1 25 15 15 19 15 40 -2z m83 -12 c17 -13 18 -16 5 -24 -21 -13 -36 -12 -49 3
-8 10 -7 17 1 25 15 15 19 15 43 -4z m446 -25 c16 -8 18 -13 8 -25 -14 -18
-33 -18 -48 -1 -8 10 -7 17 1 25 15 15 15 15 39 1z m130 0 c16 -8 18 -13 8
-25 -14 -18 -33 -18 -48 -1 -8 10 -7 17 1 25 15 15 15 15 39 1z m80 0 c16 -8
18 -13 8 -25 -14 -18 -33 -18 -48 -1 -8 10 -7 17 1 25 15 15 15 15 39 1z
m-700 -9 c25 -14 24 -27 -1 -35 -28 -9 -54 13 -39 31 14 17 15 17 40 4z"/>
<path d="M4250 491 c0 -15 6 -21 21 -21 25 0 22 33 -4 38 -12 2 -17 -3 -17
-17z"/>
<path d="M1565 580 c-8 -14 13 -40 32 -40 20 0 12 44 -9 48 -9 2 -19 -2 -23
-8z"/>
<path d="M4077 401 c-6 -23 0 -31 24 -31 22 0 31 13 23 34 -9 22 -41 20 -47
-3z"/>
<path d="M2017 401 c-3 -12 1 -22 10 -25 27 -11 34 -6 31 16 -4 29 -34 36 -41
9z"/>
</g>
</svg>
