<?xml version="1.0" encoding="UTF-8"?>
<!DOCTYPE svg PUBLIC "-//W3C//DTD SVG 1.1//EN" "http://www.w3.org/Graphics/SVG/1.1/DTD/svg11.dtd">
<!-- Creator: CorelDRAW -->
<svg xmlns="http://www.w3.org/2000/svg" xml:space="preserve" width="1.70666in" height="1.70666in" version="1.1" style="shape-rendering:geometricPrecision; text-rendering:geometricPrecision; image-rendering:optimizeQuality; fill-rule:evenodd; clip-rule:evenodd"
viewBox="0 0 1706.66 1706.66"
 xmlns:xlink="http://www.w3.org/1999/xlink"
 xmlns:xodm="http://www.corel.com/coreldraw/odm/2003">
 <defs>
  <style type="text/css">
   <![CDATA[
    .fil0 {fill:#FA3C48}
    .fil1 {fill:#FB626B}
    .fil2 {fill:white}
   ]]>
  </style>
 </defs>
 <g id="Layer_x0020_1">
  <metadata id="CorelCorpID_0Corel-Layer"/>
  <g id="_2151204948768">
   <path class="fil0" d="M853.33 1706.63c-470.5,0 -853.3,-382.79 -853.3,-853.3 0,-470.51 382.8,-853.3 853.3,-853.3 470.51,0 853.31,382.79 853.31,853.3 0,470.51 -382.8,853.3 -853.31,853.3z"/>
   <path class="fil1" d="M853.33 139.28c-393.73,0 -714.06,320.32 -714.06,714.06 0,393.73 320.32,714.06 714.06,714.06 393.73,0 714.06,-320.31 714.06,-714.06 0,-393.74 -320.32,-714.06 -714.06,-714.06z"/>
   <path class="fil0" d="M1172.28 1192.27l-637.89 0c-11.04,0 -20,-8.97 -20,-20l0 -637.89c0,-11.04 8.96,-20 20,-20l637.89 0c11.04,0 20,8.96 20,20l0 637.89c0.01,11.03 -8.96,20 -20,20z"/>
   <path class="fil2" d="M1073.03 1093.03l-439.39 0c-11.04,0 -20,-8.97 -20,-20l0 -439.4c0,-11.04 8.96,-20 20,-20l439.39 0c11.04,0 20,8.96 20,20l0 439.4c0,11.05 -8.96,20 -20,20z"/>
  </g>
 </g>
</svg>
