<?xml version="1.0" encoding="UTF-8"?>
<!DOCTYPE svg PUBLIC "-//W3C//DTD SVG 1.1//EN" "http://www.w3.org/Graphics/SVG/1.1/DTD/svg11.dtd">
<!-- Creator: CorelDRAW -->
<svg xmlns="http://www.w3.org/2000/svg" xml:space="preserve" width="3in" height="3in" style="shape-rendering:geometricPrecision; text-rendering:geometricPrecision; image-rendering:optimizeQuality; fill-rule:evenodd; clip-rule:evenodd"
viewBox="0 0 3 3"
 xmlns:xlink="http://www.w3.org/1999/xlink">
 <defs>
  <style type="text/css">
   <![CDATA[
    .fil2 {fill:none}
    .fil0 {fill:#F38F41}
    .fil1 {fill:#F57435}
    .fil3 {fill:white}
   ]]>
  </style>
   <clipPath id="id0">
    <path d="M1.5 0c0.828425,0 1.5,0.671575 1.5,1.5 0,0.828425 -0.671575,1.5 -1.5,1.5 -0.828425,0 -1.5,-0.671575 -1.5,-1.5 0,-0.828425 0.671575,-1.5 1.5,-1.5z"/>
   </clipPath>
 </defs>
 <g id="Layer_x0020_1">
  <metadata id="CorelCorpID_0Corel-Layer"/>
  <path class="fil0" d="M1.5 0c0.828425,0 1.5,0.671575 1.5,1.5 0,0.828425 -0.671575,1.5 -1.5,1.5 -0.828425,0 -1.5,-0.671575 -1.5,-1.5 0,-0.828425 0.671575,-1.5 1.5,-1.5z"/>
  <g style="clip-path:url(#id0)">
   <g id="_160572904">
    <g>
     <polygon id="_3918746481" class="fil1" points="2.1314,0.926528 5.91767,4.7128 5.94451,4.74378 5.96986,4.77602 5.99367,4.80949 6.01589,4.84411 6.03646,4.87985 6.05533,4.91664 6.07244,4.95443 6.08774,4.99317 6.10118,5.03279 6.11269,5.07326 6.12224,5.11451 6.12975,5.15649 6.13519,5.19915 6.13849,5.24243 6.1396,5.28628 6.13849,5.33013 6.13519,5.37341 6.12975,5.41607 6.12224,5.45805 6.11269,5.4993 6.10118,5.53976 6.08774,5.57939 6.07244,5.61813 6.05533,5.65592 6.03646,5.6927 6.01589,5.72844 5.99367,5.76307 5.96986,5.79653 5.9445,5.82878 5.91767,5.85975 5.88939,5.8894 5.85974,5.91768 5.82876,5.94452 5.79652,5.96987 5.76305,5.99368 5.72843,6.0159 5.69269,6.03647 5.6559,6.05533 5.61811,6.07244 5.57938,6.08774 5.53975,6.10118 5.49928,6.1127 5.45803,6.12224 5.41605,6.12976 5.37339,6.13519 5.33011,6.13849 5.28626,6.13961 1.5,2.35333 1.54384,2.35222 1.58713,2.34892 1.62978,2.34348 1.67176,2.33597 1.71302,2.32643 1.75348,2.31491 1.79311,2.30147 1.83185,2.28617 1.86963,2.26906 1.90643,2.2502 1.94216,2.22963 1.97678,2.20741 2.01025,2.1836 2.0425,2.15824 2.07347,2.13141 2.10312,2.10313 2.1314,2.07348 2.15824,2.0425 2.18359,2.01026 2.20741,1.9768 2.22962,1.94217 2.25019,1.90643 2.26906,1.86965 2.28617,1.83186 2.30147,1.79312 2.31491,1.75349 2.32643,1.71303 2.33597,1.67178 2.34348,1.6298 2.34892,1.58714 2.35222,1.54386 2.35333,1.50001 2.35222,1.45616 2.34892,1.41288 2.34348,1.37022 2.33597,1.32824 2.32643,1.28699 2.31491,1.24652 2.30147,1.20689 2.28617,1.16816 2.26906,1.13037 2.2502,1.09358 2.22963,1.05784 2.20741,1.02322 2.18359,0.989752 2.15824,0.957504 "/>
     <polygon id="_391874672" class="fil1" points="1.5,2.35333 5.28626,6.13961 5.24242,6.13849 5.19914,6.13519 5.15648,6.12976 5.1145,6.12224 5.07325,6.1127 5.03278,6.10118 4.99315,6.08774 4.95442,6.07244 4.91663,6.05533 4.87984,6.03647 4.84411,6.0159 4.80948,5.99368 4.77602,5.96987 4.74377,5.94451 4.7128,5.91767 0.926528,2.1314 0.957504,2.15824 0.989752,2.18359 1.02321,2.20741 1.05784,2.22963 1.09357,2.2502 1.13036,2.26906 1.16815,2.28617 1.20689,2.30147 1.24652,2.31491 1.28698,2.32643 1.32823,2.33597 1.37021,2.34348 1.41287,2.34892 1.45615,2.35222 "/>
    </g>
    <path id="_160572976" class="fil1" d="M1.5 0.646665c0.470559,0 0.853339,0.382783 0.853339,0.853343 0,0.470559 -0.382783,0.853327 -0.853339,0.853327 -0.470547,0 -0.853331,-0.38278 -0.853331,-0.853327 0,-0.470543 0.382783,-0.853343 0.853331,-0.853343z"/>
   </g>
  </g>
  <path class="fil2" d="M1.5 0c0.828425,0 1.5,0.671575 1.5,1.5 0,0.828425 -0.671575,1.5 -1.5,1.5 -0.828425,0 -1.5,-0.671575 -1.5,-1.5 0,-0.828425 0.671575,-1.5 1.5,-1.5z"/>
  <path class="fil3" d="M1.5 2.35333c-0.470547,0 -0.853331,-0.38278 -0.853331,-0.853327 0,-0.470543 0.382783,-0.853343 0.853331,-0.853343 0.470559,0 0.853339,0.382783 0.853339,0.853343 0,0.470559 -0.382783,0.853327 -0.853339,0.853327zm0 -1.59117c-0.406827,0 -0.737846,0.331016 -0.737846,0.737846 0,0.406831 0.33102,0.737846 0.737846,0.737846 0.406831,0 0.737862,-0.331012 0.737862,-0.737846 0,-0.406835 -0.331031,-0.737846 -0.737862,-0.737846z"/>
  <path class="fil3" d="M1.5 1.94271c-0.244134,0 -0.442717,-0.198575 -0.442717,-0.442713 0,-0.244138 0.198583,-0.442713 0.442717,-0.442713 0.24413,0 0.442713,0.198583 0.442713,0.442713 0,0.24413 -0.198583,0.442713 -0.442713,0.442713zm0 -0.769929c-0.180409,0 -0.327217,0.146807 -0.327217,0.327217 0,0.180409 0.146807,0.327217 0.327217,0.327217 0.180398,0 0.327217,-0.146815 0.327217,-0.327217 0,-0.180409 -0.146811,-0.327217 -0.327217,-0.327217z"/>
 </g>
</svg>
