<?xml version="1.0" encoding="UTF-8" standalone="no"?> <svg id="Layer_1" data-name="Layer 1" xmlns="http://www.w3.org/2000/svg" viewBox="0 0 64 64"><path d="M42.447,34.59l-.64-.353a1.022,1.022,0,0,1-.544-1.028,8.444,8.444,0,0,0,0-2.418,1.022,1.022,0,0,1,.544-1.028l.64-.353a1.031,1.031,0,0,0,.4-1.443L41.08,25.033a1.133,1.133,0,0,0-1.51-.386L38.923,25a1.175,1.175,0,0,1-1.259-.1A9.46,9.46,0,0,0,35.6,23.753a1.084,1.084,0,0,1-.72-.989v-.708A1.082,1.082,0,0,0,33.772,21H30.228a1.082,1.082,0,0,0-1.105,1.056v.708a1.084,1.084,0,0,1-.72.989A9.46,9.46,0,0,0,26.336,24.9a1.175,1.175,0,0,1-1.259.1l-.647-.357a1.133,1.133,0,0,0-1.51.386l-1.772,2.934a1.031,1.031,0,0,0,.405,1.443l.64.353a1.022,1.022,0,0,1,.544,1.028,8.444,8.444,0,0,0,0,2.418,1.022,1.022,0,0,1-.544,1.028l-.64.353a1.031,1.031,0,0,0-.405,1.443l1.772,2.934a1.133,1.133,0,0,0,1.51.386L25.077,39a1.175,1.175,0,0,1,1.259.1A9.46,9.46,0,0,0,28.4,40.247a1.084,1.084,0,0,1,.72.989v.708A1.082,1.082,0,0,0,30.228,43h3.544a1.082,1.082,0,0,0,1.105-1.056v-.708a1.084,1.084,0,0,1,.72-.989A9.46,9.46,0,0,0,37.664,39.1a1.175,1.175,0,0,1,1.259-.1l.647.357a1.133,1.133,0,0,0,1.51-.386l1.772-2.934A1.031,1.031,0,0,0,42.447,34.59ZM32,36.5A4.5,4.5,0,1,1,36.5,32,4.5,4.5,0,0,1,32,36.5Z" style="fill:#748ca6"/><circle cx="10.5" cy="53" r="3" style="fill:#95c0f8"/><circle cx="53.5" cy="11" r="3" style="fill:#d99899"/><circle cx="17.5" cy="17" r="3" style="fill:#85ccbe"/><circle cx="46.5" cy="47" r="3" style="fill:#ffeb8c"/><path d="M38.44,39.871l.647.358a2.144,2.144,0,0,0,2.849-.746l1.772-2.932a2,2,0,0,0,.223-1.566,2.047,2.047,0,0,0-1-1.271l-.678-.362A9.47,9.47,0,0,0,42.35,32c0-.448-.033-.9-.06-1.361l.641-.354a2.044,2.044,0,0,0,1-1.27,2,2,0,0,0-.223-1.565l-1.772-2.934a2.146,2.146,0,0,0-2.849-.745l-.646.357a.19.19,0,0,1-.186-.034,10.447,10.447,0,0,0-2.287-1.27.229.229,0,0,1-.091-.06v-.707A2.084,2.084,0,0,0,33.772,20H30.228a2.084,2.084,0,0,0-2.105,2.057l0,.7a.185.185,0,0,1-.094.068,10.41,10.41,0,0,0-2.287,1.27.187.187,0,0,1-.184.034l-.647-.358a2.145,2.145,0,0,0-2.849.746l-1.772,2.932a2,2,0,0,0-.223,1.566,2.047,2.047,0,0,0,1,1.271l.678.362A9.47,9.47,0,0,0,21.65,32c0,.448.033.9.06,1.361l-.641.354a2.044,2.044,0,0,0-1,1.27,2,2,0,0,0,.223,1.565l1.772,2.934a2.145,2.145,0,0,0,2.849.745l.646-.357a.184.184,0,0,1,.186.034,10.447,10.447,0,0,0,2.287,1.27.229.229,0,0,1,.091.06v.707A2.084,2.084,0,0,0,30.228,44h3.544a2.084,2.084,0,0,0,2.105-2.057l0-.7a.185.185,0,0,1,.094-.068,10.41,10.41,0,0,0,2.287-1.27A.187.187,0,0,1,38.44,39.871Zm-1.366-1.578a8.456,8.456,0,0,1-1.847,1.025,2.082,2.082,0,0,0-1.35,1.918v.707c0,.017-.037.057-.105.057H30.228c-.068,0-.105-.04-.105-.057v-.707a2.081,2.081,0,0,0-1.348-1.917,8.477,8.477,0,0,1-1.848-1.025,2.219,2.219,0,0,0-1.313-.433,2.1,2.1,0,0,0-1.021.26l-.647.358a.14.14,0,0,1-.17-.029l-1.741-2.984.643-.354a2.01,2.01,0,0,0,1.049-2.046,7.424,7.424,0,0,1,0-2.133,2.009,2.009,0,0,0-1.052-2.046l-.671-.4,1.772-2.932a.136.136,0,0,1,.17-.03l.648.359a2.185,2.185,0,0,0,2.332-.173,8.456,8.456,0,0,1,1.847-1.025,2.082,2.082,0,0,0,1.35-1.918v-.707c0-.017.037-.057.105-.057h3.544c.068,0,.105.04.105.057v.707a2.081,2.081,0,0,0,1.348,1.917,8.477,8.477,0,0,1,1.848,1.025,2.174,2.174,0,0,0,2.334.173l.647-.358a.141.141,0,0,1,.17.029l1.741,2.984-.643.354a2.01,2.01,0,0,0-1.049,2.046,7.424,7.424,0,0,1,0,2.133,2.009,2.009,0,0,0,1.052,2.046l.671.4-1.772,2.932a.137.137,0,0,1-.17.03l-.648-.359A2.179,2.179,0,0,0,37.074,38.293Z" style="fill:#404040"/><path d="M32,26.5A5.5,5.5,0,1,0,37.5,32,5.506,5.506,0,0,0,32,26.5Zm0,9A3.5,3.5,0,1,1,35.5,32,3.5,3.5,0,0,1,32,35.5Z" style="fill:#404040"/><path d="M6.5,53a4,4,0,1,0,4-4,3.961,3.961,0,0,0-1.677.381A28.6,28.6,0,0,1,3,32,29.011,29.011,0,0,1,43.6,5.415l.8-1.832A31.01,31.01,0,0,0,1,32,30.575,30.575,0,0,0,7.278,50.652,3.958,3.958,0,0,0,6.5,53Zm4-2a2,2,0,1,1-2,2A2,2,0,0,1,10.5,51Z" style="fill:#404040"/><path d="M57.5,11a4,4,0,1,0-4,4,3.961,3.961,0,0,0,1.677-.381A28.6,28.6,0,0,1,61,32,29.011,29.011,0,0,1,20.4,58.585l-.8,1.832A31.01,31.01,0,0,0,63,32a30.575,30.575,0,0,0-6.278-18.652A3.958,3.958,0,0,0,57.5,11Zm-4,2a2,2,0,1,1,2-2A2,2,0,0,1,53.5,13Z" style="fill:#404040"/><path d="M32,10a22.092,22.092,0,0,0-5.237.627l.474,1.943A20.02,20.02,0,0,1,52,32a19.754,19.754,0,0,1-3.642,11.479A3.956,3.956,0,0,0,46.5,43a4.02,4.02,0,1,0,3.35,1.828A21.734,21.734,0,0,0,54,32,22.025,22.025,0,0,0,32,10ZM46.5,49a2,2,0,1,1,2-2A2,2,0,0,1,46.5,49Z" style="fill:#404040"/><path d="M32,54a22.092,22.092,0,0,0,5.237-.627l-.474-1.943A20.02,20.02,0,0,1,12,32a19.754,19.754,0,0,1,3.642-11.479A3.956,3.956,0,0,0,17.5,21a4.02,4.02,0,1,0-3.35-1.828A21.734,21.734,0,0,0,10,32,22.025,22.025,0,0,0,32,54ZM17.5,15a2,2,0,1,1-2,2A2,2,0,0,1,17.5,15Z" style="fill:#404040"/></svg>