<?xml version="1.0" encoding="UTF-8"?>
<!DOCTYPE svg PUBLIC "-//W3C//DTD SVG 1.1//EN" "http://www.w3.org/Graphics/SVG/1.1/DTD/svg11.dtd">
<!-- Creator: CorelDRAW -->
<svg xmlns="http://www.w3.org/2000/svg" xml:space="preserve" width="512px" height="512px" style="shape-rendering:geometricPrecision; text-rendering:geometricPrecision; image-rendering:optimizeQuality; fill-rule:evenodd; clip-rule:evenodd"
viewBox="0 0 512 512"
 xmlns:xlink="http://www.w3.org/1999/xlink">
 <defs>
  <style type="text/css">
   <![CDATA[
    .fil0 {fill:url(#id0)}
   ]]>
  </style>
  <linearGradient id="id0" gradientUnits="userSpaceOnUse" x1="17.8965" y1="264.832" x2="494.103" y2="264.832">
   <stop offset="0" style="stop-color:#990000"/>
   <stop offset="1" style="stop-color:red"/>
  </linearGradient>
 </defs>
 <g id="Layer_x0020_1">
  <metadata id="CorelCorpID_0Corel-Layer"/>
  <path class="fil0" d="M24.895 511.9c-3.89906,0 -6.99846,-3.09969 -6.99846,-6.99874l0 -497.803c0,-3.89934 3.0994,-6.99874 6.99846,-6.99874l354.931 0.000283465c3.89906,0 6.99874,3.0994 6.99874,6.99846l0 276.467c59.7433,3.63232 107.279,53.42 107.279,114.057 -0.100063,62.9263 -51.1906,114.176 -114.093,114.276l-355.115 0.00226772zm318.238 -70.4863c-6.37257,0 -9.31748,-7.57928 -4.99918,-11.8976l31.7438 -31.7438 -31.7438 -31.7438c-2.69943,-2.69972 -2.69943,-7.19858 0,-9.8983 2.69972,-2.69943 7.19858,-2.69943 9.8983,0l31.7438 31.7438 31.7438 -31.7438c2.69943,-2.69943 7.19858,-2.69943 9.89802,0 2.69943,2.69972 2.69943,7.19858 0,9.8983l-31.7438 31.7438 31.7438 31.7438c4.27266,4.27266 1.40939,11.8976 -4.89912,11.8976 -1.79972,0 -3.59943,-0.699874 -4.9989,-1.99956l-31.7438 -31.7438 -31.7438 31.7438c-1.29997,1.29969 -3.09969,1.99956 -4.89912,1.99956zm29.6941 -157.848l0 -269.468 -340.933 0 0 483.805 293.219 0c-35.4135,-19.4326 -59.4652,-57.1071 -59.4652,-100.28 0,-60.6368 47.4426,-110.424 107.179,-114.057zm107.279 114.157c-0.100063,-55.2892 -44.9912,-100.28 -100.28,-100.28 -55.1894,0 -100.18,44.9912 -100.18,100.28 0,131.841 200.461,131.409 200.461,0zm-220.157 68.2866l-202.061 0c-3.89906,0 -6.99846,-3.0994 -6.99846,-6.99846 0,-3.89934 3.0994,-6.99874 6.99846,-6.99874l202.061 0c3.89934,0 6.99874,3.0994 6.99874,6.99874 0,3.89906 -3.0994,6.99846 -6.99874,6.99846zm-24.6952 -57.9886l-177.366 0c-3.89906,0 -6.99846,-3.0994 -6.99846,-6.99874 0,-3.89906 3.0994,-6.99846 6.99846,-6.99846l177.366 0c3.89906,0 6.99874,3.0994 6.99874,6.99874 0,3.89906 -3.09969,6.99846 -6.99874,6.99846zm10.0979 -58.0887l-187.463 0c-3.89906,0 -6.99846,-3.0994 -6.99846,-6.99846 0,-3.89934 3.0994,-6.99874 6.99846,-6.99874l187.463 0c3.89934,0 6.99874,3.0994 6.99874,6.99874 0,3.89934 -3.0994,6.99846 -6.99874,6.99846zm52.6898 -57.9886l-240.053 0c-3.89906,0 -6.99874,-3.0994 -6.99874,-6.99846 0,-3.89934 3.09969,-6.99874 6.99874,-6.99874l240.053 0c3.89906,0 6.99874,3.0994 6.99874,6.99874 0,3.89906 -3.09969,6.99846 -6.99874,6.99846zm48.7905 -57.9886l-288.844 0c-3.89906,0 -6.99874,-3.0994 -6.99874,-6.99846 0,-3.89934 3.09969,-6.99874 6.99874,-6.99874l288.844 0c3.89906,0 6.99846,3.0994 6.99846,6.99874 0,3.89906 -3.19918,6.99846 -6.99846,6.99846zm0 -57.9886l-131.074 0c-3.89934,0 -6.99874,-3.0994 -6.99874,-6.99846 0,-3.89934 3.0994,-6.99874 6.99874,-6.99874l131.074 0c3.89906,0 6.99846,3.0994 6.99846,6.99874 0,3.89906 -3.19918,6.99846 -6.99846,6.99846zm0 -115.977l-131.074 0c-3.89934,0 -6.99874,-3.0994 -6.99874,-6.99874 0,-3.89906 3.0994,-6.99846 6.99874,-6.99846l131.074 0c3.89906,0 6.99846,3.0994 6.99846,6.99846 0,3.89934 -3.19918,6.99874 -6.99846,6.99874zm0 57.9886l-131.074 0c-3.89934,0 -6.99874,-3.0994 -6.99874,-6.99874 0,-3.89906 3.0994,-6.99846 6.99874,-6.99846l131.074 0c3.89906,0 6.99846,3.0994 6.99846,6.99874 0,3.89906 -3.19918,6.99846 -6.99846,6.99846zm-169.067 61.7879l-119.777 0c-3.89906,0 -6.99874,-3.0994 -6.99874,-6.99874l0 -119.777c0,-3.89906 3.09969,-6.99846 6.99874,-6.99846l119.777 0c3.89934,0 6.99874,3.0994 6.99874,6.99846l0 119.777c0,3.89934 -3.19946,6.99874 -6.99874,6.99874zm-112.778 -13.9972l105.779 0 0 -105.779 -105.779 0 0 105.779z"/>
 </g>
</svg>
