<svg width="100" height="100" viewBox="0 0 100 100" fill="none" xmlns="http://www.w3.org/2000/svg">
<path d="M88.1019 58.8224C86.9577 57.6785 85.1028 57.6785 83.9587 58.8224C82.8146 59.9664 82.8146 61.8215 83.9587 62.9656L89.8687 68.8756C90.4407 69.4476 91.1903 69.7336 91.9401 69.7336C92.6899 69.7336 93.4397 69.4474 94.0118 68.8756C95.156 67.7316 95.156 65.8765 94.0118 64.7324L88.1019 58.8224Z" fill="white"/>
<path d="M86.0302 34.5775C86.7798 34.5775 87.5298 34.2914 88.1019 33.7195L94.0118 27.8096C95.156 26.6656 95.156 24.8105 94.0118 23.6664C92.8677 22.5223 91.0128 22.5223 89.8687 23.6664L83.9587 29.5764C82.8146 30.7203 82.8146 32.5754 83.9587 33.7195C84.5308 34.2916 85.2804 34.5775 86.0302 34.5775Z" fill="white"/>
<path d="M97.0704 43.3412H88.7124C87.0944 43.3412 85.7827 44.6529 85.7827 46.2709C85.7827 47.8888 87.0944 49.2006 88.7124 49.2006H97.0704C98.6884 49.2006 100 47.8888 100 46.2709C100 44.6529 98.6884 43.3412 97.0704 43.3412Z" fill="white"/>
<path d="M77.9779 4.60703C77.0529 4.08886 75.9201 4.11113 75.016 4.66465L41.4643 25.2125H26.5695C23.3885 25.0443 20.3623 26.1529 18.0393 28.3396C17.1746 29.1533 16.4457 30.0926 15.8648 31.116H8.49356C3.81016 31.116 0 34.9262 0 39.6096V52.9322C0 57.6156 3.81016 61.4258 8.49356 61.4258H15.8502C17.0299 63.5348 18.8107 65.283 20.9758 66.44L10.7686 84.1197C10.377 84.798 10.2732 85.6049 10.4805 86.3604C10.6879 87.1156 11.1891 87.7564 11.8721 88.1396L24.7982 95.3914C25.2514 95.6457 25.7436 95.7666 26.2291 95.7666C27.2422 95.7666 28.2268 95.2402 28.7688 94.3012L43.3441 69.0555L75.0492 87.8971C75.5102 88.1711 76.0279 88.3082 76.5459 88.3082C77.0455 88.3082 77.5453 88.1807 77.9947 87.9248C78.9102 87.4039 79.4756 86.4316 79.4756 85.3785V7.16308C79.4756 6.10293 78.9027 5.12539 77.9779 4.60703ZM8.49356 55.5664C7.04102 55.5664 5.85938 54.3848 5.85938 52.9322V39.6096C5.85938 38.157 7.04102 36.9754 8.49356 36.9754H14.2854C14.285 37.0191 14.282 37.0627 14.282 37.1064V55.4353C14.282 55.4793 14.2848 55.5227 14.2854 55.5664H8.49356ZM20.1414 37.1064C20.1414 35.3912 20.8389 33.751 22.0549 32.6064C23.2123 31.5172 24.7225 30.9693 26.3094 31.0666C26.3686 31.0701 39.3607 31.0719 39.3607 31.0719V62.0914H26.583C22.9641 61.8314 20.1414 58.9227 20.1414 55.4352V37.1064ZM25.1414 88.8654L17.3258 84.4809L26.6967 68.2498C26.7531 68.1521 26.8018 68.0519 26.8457 67.951H37.2162L25.1414 88.8654ZM73.6162 80.2295L45.2201 63.3543V29.7834L73.6162 12.3928V80.2295Z" fill="white"/>
</svg>
