<svg width="88" height="100" viewBox="0 0 88 100" fill="none" xmlns="http://www.w3.org/2000/svg">
<path d="M41.0704 32.2271C41.0704 33.845 42.3821 35.1568 44.0001 35.1568C45.618 35.1568 46.9297 33.845 46.9297 32.2271V27.5812L51.9309 22.58C53.075 21.4359 53.075 19.581 51.9309 18.4368C50.787 17.2927 48.9319 17.2927 47.7877 18.4368L43.9999 22.2245L40.212 18.4368C39.068 17.2927 37.2129 17.2927 36.0688 18.4368C34.9247 19.581 34.9247 21.4359 36.0688 22.58L41.07 27.5812V32.2271H41.0704Z" fill="white"/>
<path d="M86.5953 53.5878C79.4073 48.9849 69.0681 48.5351 59.6126 52.4132C55.1404 54.2475 51.1252 56.969 48.0012 60.2836C47.6297 60.6778 47.2744 61.0799 46.9299 61.4871V52.2306C50.3399 51.0212 52.7892 47.7648 52.7892 43.9454V43.916C52.7892 41.1208 53.9793 38.5953 55.9722 37.1601C62.5806 32.402 65.6937 24.4284 64.097 16.3513C63.3156 12.3986 61.3388 8.77475 58.3802 5.87145C55.4259 2.97225 51.768 1.06112 47.8016 0.344332C41.7124 -0.756248 35.5374 0.855071 30.8583 4.76403C26.1773 8.67495 23.4925 14.4134 23.4925 20.5081C23.4925 27.0205 26.4826 33.0008 31.696 36.9158C33.8972 38.5687 35.2112 41.182 35.2112 43.9066V43.9454C35.2112 47.7648 37.6606 51.0212 41.0706 52.2306V61.5221C40.7217 61.1108 40.3622 60.7043 39.9858 60.3061C36.8427 56.9786 32.8087 54.2467 28.3199 52.4055C18.8939 48.5398 8.58072 48.9923 1.40498 53.5876C0.56553 54.1251 0.0571345 55.0524 0.0551814 56.0493C0.0532283 57.046 0.558304 57.9752 1.3958 58.5159C7.3194 62.3405 18.3584 67.4525 28.099 71.3146C22.0539 73.1193 17.6332 78.7273 17.6332 85.3513C17.6332 93.4284 24.2045 99.9996 32.2816 99.9996H55.7189C63.796 99.9996 70.3673 93.4284 70.3673 85.3513C70.3673 78.7273 65.9466 73.1193 59.9015 71.3146C69.6423 67.4525 80.6813 62.3405 86.6047 58.5159C87.442 57.9752 87.9471 57.046 87.9451 56.0491C87.9433 55.0528 87.4348 54.1253 86.5953 53.5878ZM35.2142 32.2307C31.4886 29.4328 29.3517 25.1602 29.3517 20.5083C29.3517 16.1548 31.27 12.0554 34.6149 9.26088C37.2905 7.02554 40.5389 5.85719 43.9707 5.85719C44.8895 5.85719 45.8217 5.94098 46.759 6.11031C52.4621 7.14097 57.2279 11.8195 58.3486 17.4878C59.4951 23.2876 57.2724 29.0035 52.5482 32.4053C49.0299 34.9387 46.9295 39.2416 46.9295 43.9161V43.9456C46.9295 45.5611 45.6153 46.8753 43.9998 46.8753C42.3844 46.8753 41.0702 45.5611 41.0702 43.9456V43.9068C41.0704 39.349 38.8813 34.9842 35.2142 32.2307ZM26.0962 57.8268C31.9624 60.2328 36.5948 64.299 39.22 69.1799C30.729 66.3398 17.8961 60.9278 9.41841 56.4001C14.4172 55.0335 20.4107 55.4952 26.0962 57.8268ZM64.5077 85.3516C64.5077 90.1979 60.565 94.1407 55.7187 94.1407H32.2814C27.4351 94.1407 23.4924 90.1979 23.4924 85.3516C23.4924 80.5054 27.4351 76.5626 32.2814 76.5626H43.9981H44C44 76.5626 44.0014 76.5626 44.002 76.5626H55.7187C60.5652 76.5626 64.5077 80.5054 64.5077 85.3516ZM48.7402 69.1933C51.3285 64.2775 55.8937 60.2717 61.8361 57.8344C65.4235 56.363 69.1311 55.6327 72.6356 55.6327C74.712 55.6327 76.7168 55.8891 78.5825 56.3999C70.0921 60.9342 57.231 66.357 48.7402 69.1933Z" fill="white"/>
<path d="M8.84424 23.438H14.7036C16.3216 23.438 17.6333 22.1263 17.6333 20.5083C17.6333 18.8903 16.3216 17.5786 14.7036 17.5786H8.84424C7.22627 17.5786 5.91455 18.8903 5.91455 20.5083C5.91455 22.1263 7.22607 23.438 8.84424 23.438Z" fill="white"/>
<path d="M70.3669 20.5083C70.3669 22.1263 71.6787 23.438 73.2966 23.438H79.156C80.774 23.438 82.0857 22.1263 82.0857 20.5083C82.0857 18.8903 80.774 17.5786 79.156 17.5786H73.2966C71.6787 17.5786 70.3669 18.8903 70.3669 20.5083Z" fill="white"/>
<path d="M17.1634 32.6195L12.0892 35.5492C10.6878 36.3582 10.2077 38.15 11.0169 39.5512C11.5595 40.4912 12.5442 41.0164 13.5567 41.0164C14.0538 41.0164 14.5575 40.8898 15.0188 40.6234L20.0931 37.6937C21.4944 36.8848 21.9745 35.093 21.1653 33.6918C20.3563 32.2904 18.5645 31.8105 17.1634 32.6195Z" fill="white"/>
<path d="M69.3744 8.79006C69.8714 8.79006 70.3751 8.6635 70.8365 8.39709L75.9107 5.4674C77.3121 4.65842 77.7921 2.86662 76.983 1.46545C76.1738 0.0640817 74.3822 -0.415606 72.981 0.393183L67.9068 3.32287C66.5054 4.13186 66.0253 5.92365 66.8345 7.32482C67.3773 8.26486 68.3621 8.79006 69.3744 8.79006Z" fill="white"/>
<path d="M12.0892 5.46739L17.1634 8.39708C17.6247 8.66349 18.1284 8.79005 18.6255 8.79005C19.638 8.79005 20.6228 8.26466 21.1653 7.32481C21.9745 5.92364 21.4944 4.13185 20.0931 3.32286L15.0188 0.393174C13.6177 -0.416006 11.8257 0.0640722 11.0169 1.46544C10.2077 2.86661 10.6878 4.65841 12.0892 5.46739Z" fill="white"/>
<path d="M67.907 37.6937L72.9812 40.6234C73.4426 40.8898 73.9463 41.0164 74.4434 41.0164C75.4559 41.0164 76.4406 40.491 76.9832 39.5512C77.7924 38.15 77.3123 36.3582 75.9109 35.5492L70.8367 32.6195C69.4354 31.8101 67.6436 32.2904 66.8348 33.6918C66.0256 35.093 66.5057 36.8848 67.907 37.6937Z" fill="white"/>
</svg>
