<svg width="100" height="100" viewBox="0 0 100 100" fill="none" xmlns="http://www.w3.org/2000/svg">
<g clip-path="url(#clip0_3_1174)">
<path d="M10.9313 58.7891H10.9377C12.5527 58.7891 13.8637 57.4817 13.8674 55.8656C13.8881 46.2451 17.6467 37.1998 24.4508 30.3957C25.5949 29.2518 25.5949 27.3967 24.4508 26.2526C23.3068 25.1086 21.4518 25.1086 20.3076 26.2526C12.4 34.1598 8.03184 44.6723 8.00782 55.8531C8.0043 57.4711 9.31329 58.7856 10.9313 58.7891Z" fill="white"/>
<path d="M86.1327 55.8656C86.1362 57.4815 87.447 58.7891 89.0624 58.7891H89.0688C90.6868 58.7856 91.9956 57.4711 91.9923 55.8531C91.9683 44.6723 87.6001 34.16 79.6927 26.2526C78.5487 25.1086 76.6937 25.1086 75.5495 26.2526C74.4054 27.3965 74.4054 29.2516 75.5495 30.3957C82.3534 37.1998 86.112 46.2451 86.1327 55.8656Z" fill="white"/>
<path d="M57.229 91.3518C52.4319 92.3264 47.5677 92.3264 42.7708 91.3518C41.1848 91.0285 39.6384 92.0537 39.3163 93.6393C38.9942 95.225 40.0182 96.7715 41.604 97.0937C44.3895 97.6598 47.1948 97.943 49.9999 97.943C52.805 97.943 55.6102 97.66 58.3958 97.0937C59.9815 96.7717 61.0056 95.2252 60.6835 93.6393C60.3612 92.0537 58.8141 91.0291 57.229 91.3518Z" fill="white"/>
<path d="M66.8862 31.0453L65.072 23.7684C64.2513 20.4766 61.9735 17.8666 59.0273 16.5535C60.1105 14.877 60.7423 12.8826 60.7423 10.7422C60.7423 4.81895 55.9234 0 50.0001 0C44.0769 0 39.2579 4.81895 39.2579 10.7422C39.2579 12.8826 39.8896 14.877 40.9728 16.5537C38.0265 17.8666 35.7489 20.4766 34.9282 23.7684L33.1138 31.0453C32.7476 32.5139 33.072 34.04 34.0038 35.2326C34.9357 36.4252 36.338 37.1092 37.8515 37.1092H62.1485C63.662 37.1092 65.0644 36.4252 65.9962 35.2326C66.928 34.04 67.2525 32.5139 66.8862 31.0453ZM50.0001 5.85938C52.6925 5.85938 54.8829 8.04981 54.8829 10.7422C54.8829 13.4346 52.6925 15.625 50.0001 15.625C47.3077 15.625 45.1173 13.4346 45.1173 10.7422C45.1173 8.04981 47.3077 5.85938 50.0001 5.85938ZM39.1015 31.25L40.6134 25.1859C41.1569 23.0064 43.1052 21.4844 45.3513 21.4844H54.6489C56.895 21.4844 58.8435 23.0064 59.3868 25.1859L60.8987 31.25H39.1015Z" fill="white"/>
<path d="M32.1054 86.659C31.2847 83.3672 29.007 80.7572 26.0609 79.4443C27.1441 77.7676 27.7757 75.7732 27.7757 73.6328C27.7757 67.7096 22.9568 62.8906 17.0336 62.8906C11.1103 62.8906 6.29137 67.7096 6.29137 73.6328C6.29137 75.7732 6.92301 77.7676 8.00621 79.4443C5.05992 80.7572 2.78239 83.3674 1.96168 86.6592L0.147229 93.9361C-0.218982 95.4047 0.105432 96.9309 1.03727 98.1234C1.96891 99.316 3.37145 100 4.88492 100H29.182C30.6955 100 32.098 99.316 33.0299 98.1234C33.9617 96.9309 34.2861 95.4045 33.9199 93.9361L32.1054 86.659ZM17.0336 68.75C19.7259 68.75 21.9164 70.9404 21.9164 73.6328C21.9164 76.3252 19.7259 78.5156 17.0336 78.5156C14.3412 78.5156 12.1507 76.3252 12.1507 73.6328C12.1507 70.9404 14.3412 68.75 17.0336 68.75ZM6.13492 94.1406L7.64703 88.0766C8.1902 85.8971 10.1386 84.375 12.3847 84.375H21.6824C23.9285 84.375 25.8769 85.8971 26.4203 88.0766L27.9322 94.1406H6.13492Z" fill="white"/>
<path d="M99.8528 93.936L98.0383 86.659C97.2176 83.3672 94.9399 80.7572 91.9938 79.4442C93.077 77.7674 93.7086 75.7731 93.7086 73.6326C93.7086 67.7094 88.8897 62.8904 82.9664 62.8904C77.0432 62.8904 72.2242 67.7094 72.2242 73.6326C72.2242 75.7731 72.8559 77.7674 73.9391 79.4442C70.9928 80.757 68.7152 83.367 67.8945 86.6588L66.0801 93.9358C65.7139 95.4043 66.0383 96.9305 66.9701 98.1231C67.902 99.3156 69.3045 99.9996 70.818 99.9996H95.1151C96.6285 99.9996 98.0311 99.3156 98.9629 98.1231C99.8946 96.9307 100.219 95.4045 99.8528 93.936ZM82.9664 68.75C85.6588 68.75 87.8492 70.9404 87.8492 73.6328C87.8492 76.3252 85.6588 78.5156 82.9664 78.5156C80.274 78.5156 78.0836 76.3252 78.0836 73.6328C78.0836 70.9404 80.274 68.75 82.9664 68.75ZM72.0678 94.1406L73.5797 88.0766C74.1233 85.8971 76.0715 84.375 78.3176 84.375H87.6152C89.8613 84.375 91.8096 85.8971 92.3529 88.0766L93.8651 94.1406H72.0678Z" fill="white"/>
<path d="M57.694 50.3547L45.4776 62.5711L42.306 59.3994C41.162 58.2555 39.3069 58.2555 38.1628 59.3994C37.0187 60.5434 37.0187 62.3985 38.1628 63.5426L43.4062 68.7859C43.9782 69.358 44.728 69.6442 45.4776 69.6442C46.2272 69.6442 46.9772 69.358 47.5491 68.7859L61.837 54.4981C62.9812 53.3541 62.9812 51.499 61.837 50.3549C60.6931 49.2108 58.838 49.2108 57.694 50.3547Z" fill="white"/>
</g>
<defs>
<clipPath id="clip0_3_1174">
<rect width="100" height="100" fill="white"/>
</clipPath>
</defs>
</svg>
