<svg width="100" height="100" viewBox="0 0 100 100" fill="none" xmlns="http://www.w3.org/2000/svg">
<path d="M72.2656 18.46V17.3828C72.2656 10.7395 65.5035 6.1832 59.3484 8.70488C59.0033 3.84727 54.9439 0 50 0C45.692 0 42.0561 2.92148 40.9627 6.88672C34.7736 4.08359 27.7344 8.64219 27.7344 15.4297V35.9631C25.0127 33.751 21.5459 32.4219 17.7734 32.4219C16.1555 32.4219 14.8438 33.7336 14.8438 35.3516V64.8438C14.8438 84.2289 30.6148 100 50 100C69.3852 100 85.1562 84.2289 85.1562 64.8438V27.1484C85.1562 20.5172 78.4172 15.9615 72.2656 18.46ZM79.2969 64.8438C79.2969 80.998 66.1543 94.1406 50 94.1406C33.8457 94.1406 20.7031 80.998 20.7031 64.8438V38.7209C24.7703 39.9748 27.7344 43.7689 27.7344 48.2422V55.6641C27.7344 57.282 29.0461 58.5938 30.6641 58.5938C32.282 58.5938 33.5938 57.282 33.5938 55.6641C33.5938 -16.1896 33.5938 34.0396 33.5938 15.4297C33.5938 13.4912 35.1709 11.9141 37.1094 11.9141C39.0479 11.9141 40.625 13.4912 40.625 15.4297V44.1406C40.625 45.7586 41.9367 47.0703 43.5547 47.0703C45.1727 47.0703 46.4844 45.7586 46.4844 44.1406C46.4844 42.2555 46.4844 11.1562 46.4844 9.375C46.4844 7.43652 48.0615 5.85938 50 5.85938C51.9385 5.85938 53.5156 7.43652 53.5156 9.375V44.1406C53.5156 45.7586 54.8273 47.0703 56.4453 47.0703C58.0633 47.0703 59.375 45.7586 59.375 44.1406V17.3828C59.375 15.4443 60.9521 13.8672 62.8906 13.8672C64.8291 13.8672 66.4062 15.4443 66.4062 17.3828V44.1406C66.4062 45.7586 67.718 47.0703 69.3359 47.0703C70.9539 47.0703 72.2656 45.7586 72.2656 44.1406C72.2656 42.8365 72.2656 29.1938 72.2656 27.1484C72.2656 25.21 73.8428 23.6328 75.7812 23.6328C77.7197 23.6328 79.2969 25.21 79.2969 27.1484V64.8438Z" fill="white"/>
<path d="M50 60.9952C43.6225 55.8127 34.375 60.2141 34.375 69.5051C34.375 73.6053 36.8273 77.9508 41.6639 82.4207C45.0088 85.5121 48.3248 87.5653 48.4641 87.651C49.4059 88.2309 50.5938 88.2309 51.5357 87.651C51.6752 87.5653 54.991 85.5121 58.3359 82.4207C63.1727 77.9508 65.625 73.6053 65.625 69.5051C65.625 60.1924 56.365 55.8235 50 60.9952ZM50 81.6489C45.7133 78.6567 40.2344 73.503 40.2344 69.5051C40.2344 64.7356 44.8381 62.7409 47.534 66.9438C48.6857 68.7403 51.3154 68.7383 52.466 66.9438C55.158 62.7471 59.7656 64.728 59.7656 69.5051C59.7656 73.5034 54.2855 78.6576 50 81.6489Z" fill="white"/>
</svg>
