<svg width="100" height="100" viewBox="0 0 100 100" fill="none" xmlns="http://www.w3.org/2000/svg">
<g clip-path="url(#clip0_3_1200)">
<path d="M97.1614 23.8582C96.9733 23.8518 93.1112 23.7214 87.4418 23.8467V12.2227C87.4418 10.5092 85.9786 9.15019 84.2559 9.29176C72.9516 10.2355 58.5694 15.2306 50 24.3414C41.4306 15.2306 27.0484 10.2355 15.7441 9.29176C14.0245 9.15176 12.5582 10.5047 12.5582 12.2227V24.161C9.33706 24.0394 6.2902 23.9537 3.02843 23.8578C1.38333 23.8059 0 25.131 0 26.7976V80.3604C0 81.9082 1.19941 83.1912 2.74373 83.2949C14.4433 84.0824 34.0412 84.171 48.8463 90.4855C50.1657 91.049 51.3502 90.4018 51.1541 90.4855C65.9588 84.1712 85.5531 84.0827 97.2567 83.2949C98.8008 83.1912 100 81.9082 100 80.3604V26.7976C100 25.2131 98.7449 23.9135 97.1614 23.8582ZM81.5594 15.5308V65.9402C73.0778 67.8375 62.329 71.8861 52.9412 80.4706C52.9412 77.8814 52.9412 31.3147 52.9412 29.9143C59.3765 21.8849 71.5639 17.0453 81.5594 15.5308ZM18.4406 15.5308C28.4361 17.0453 40.6235 21.8849 47.0588 29.9143V80.4706C37.671 71.8861 26.9222 67.8375 18.4406 65.9402V15.5308ZM5.88235 77.5927V29.8267C7.98843 29.889 10.241 29.9594 12.5582 30.0478V68.3374C12.5582 69.7525 13.5661 70.9671 14.9569 71.228C21.6727 72.4886 30.4061 75.2247 38.5457 81.1161C26.9329 78.5116 14.7776 78.0929 5.88235 77.5927ZM94.1177 77.5927C85.2369 78.0922 73.0716 78.5104 61.4541 81.1161C69.5937 75.2247 78.3273 72.4886 85.0429 71.228C86.4337 70.9671 87.4416 69.7525 87.4416 68.3374V29.731C90.1486 29.6704 92.4543 29.6696 94.1175 29.6847L94.1177 77.5927Z" fill="white"/>
<path d="M39.4327 36.6894C37.1547 35.1024 33.2274 33.1543 29.0363 32.4461C27.4353 32.1743 25.9168 33.2545 25.6461 34.8561C25.3755 36.4577 26.4545 37.9755 28.0563 38.2461C31.2921 38.793 34.3957 40.3492 36.0702 41.5159C37.4025 42.4441 39.2359 42.1171 40.1647 40.7839C41.0931 39.4512 40.7655 37.6179 39.4327 36.6894Z" fill="white"/>
<path d="M39.1382 53.2522C37.0423 51.9724 32.9429 49.7265 29.0363 49.0663C27.4353 48.7949 25.9168 49.8745 25.6461 51.4763C25.3755 53.0781 26.4545 54.5957 28.0563 54.8663C31.0996 55.3806 34.6759 57.4194 36.0721 58.2724C37.4602 59.1196 39.2696 58.68 40.1153 57.2953C40.9619 55.909 40.5245 54.099 39.1382 53.2522Z" fill="white"/>
<path d="M63.9298 41.5159C65.6043 40.3492 68.7078 38.7929 71.9437 38.2461C73.5452 37.9755 74.6243 36.4576 74.3539 34.8561C74.0833 33.2543 72.5649 32.1737 70.9637 32.4461C66.7725 33.1541 62.8452 35.1023 60.5672 36.6894C59.2345 37.6178 58.9068 39.4512 59.8352 40.7839C60.7643 42.1174 62.5982 42.4437 63.9298 41.5159Z" fill="white"/>
<path d="M70.9637 49.0665C67.057 49.7265 62.9576 51.9724 60.8617 53.2524C59.4755 54.099 59.038 55.9092 59.8847 57.2955C60.7313 58.6816 62.5413 59.119 63.9278 58.2726C65.3241 57.4196 68.9004 55.3808 71.9437 54.8665C73.5453 54.5959 74.6243 53.0782 74.3539 51.4765C74.0831 49.8747 72.5649 48.7941 70.9637 49.0665Z" fill="white"/>
</g>
<defs>
<clipPath id="clip0_3_1200">
<rect width="100" height="100" fill="white"/>
</clipPath>
</defs>
</svg>
