<svg width="100" height="100" viewBox="0 0 100 100" fill="none" xmlns="http://www.w3.org/2000/svg">
<g clip-path="url(#clip0_3_1221)">
<path d="M96.8224 5.66406H2.78702C1.13983 5.66406 -0.195312 6.99921 -0.195312 8.64639V8.75092V91.4223C-0.195312 93.0695 1.13983 94.4046 2.78702 94.4046H96.8224C98.4696 94.4046 99.8047 93.0695 99.8047 91.4223C99.8047 87.3924 99.8047 12.1628 99.8047 8.64639C99.8047 6.99921 98.4696 5.66406 96.8224 5.66406ZM46.8224 37.2314H5.76859V28.55H46.8224V37.2314ZM5.76859 22.5601V11.7325H93.8408V22.5853C93.8301 22.5853 6.46133 22.5601 5.76859 22.5601ZM5.76859 88.4399V43.1953H46.8224V88.4407H5.76859V88.4399ZM52.787 88.4399C52.787 86.7249 52.787 28.9391 52.787 28.5492H93.8408V88.4399H52.787Z" fill="white"/>
<path d="M87.3794 17.1593C87.3794 19.0804 85.8215 20.6383 83.9004 20.6383C81.9786 20.6383 80.4207 19.0804 80.4207 17.1593C80.4207 15.2374 81.9786 13.6795 83.9004 13.6795C85.8215 13.6795 87.3794 15.2374 87.3794 17.1593Z" fill="white"/>
<path d="M75.782 17.1593C75.782 19.0804 74.2248 20.6383 72.303 20.6383C70.3819 20.6383 68.824 19.0804 68.824 17.1593C68.824 15.2374 70.3819 13.6795 72.303 13.6795C74.2248 13.6795 75.782 15.2374 75.782 17.1593Z" fill="white"/>
<path d="M41.4214 14.1769H11.9315C10.2851 14.1769 8.94995 15.5121 8.94995 17.1593C8.94995 18.8057 10.2851 20.1408 11.9315 20.1408H41.4214C43.0686 20.1408 44.4038 18.8057 44.4038 17.1593C44.4038 15.5121 43.0686 14.1769 41.4214 14.1769Z" fill="white"/>
<path d="M87.9258 44.3718H59.1981C57.5517 44.3718 56.2166 45.707 56.2166 47.3534V58.3542C56.2166 60.0014 57.5517 61.3365 59.1981 61.3365H87.9258C89.573 61.3365 90.9082 60.0014 90.9082 58.3542V47.3534C90.9082 45.707 89.573 44.3718 87.9258 44.3718ZM84.9443 55.3719H62.1805V50.3357H84.9443V55.3719Z" fill="white"/>
<path d="M69.0934 65.5526H59.1981C57.5517 65.5526 56.2166 66.8877 56.2166 68.5349V79.7509C56.2166 81.398 57.5517 82.7332 59.1981 82.7332H69.0934C70.7399 82.7332 72.075 81.398 72.075 79.7509V68.5349C72.075 66.8877 70.7399 65.5526 69.0934 65.5526ZM66.1111 76.7685H62.1805V71.5172H66.1111V76.7685Z" fill="white"/>
<path d="M87.9258 65.5526H77.9198C76.2726 65.5526 74.9375 66.8877 74.9375 68.5349C74.9375 70.1821 76.2726 71.5172 77.9198 71.5172H87.9258C89.573 71.5172 90.9081 70.1821 90.9081 68.5349C90.9081 66.8877 89.573 65.5526 87.9258 65.5526Z" fill="white"/>
<path d="M87.9258 76.7685H77.9198C76.2726 76.7685 74.9375 78.1044 74.9375 79.7508C74.9375 81.398 76.2726 82.7332 77.9198 82.7332H87.9258C89.573 82.7332 90.9081 81.398 90.9081 79.7508C90.9081 78.1044 89.573 76.7685 87.9258 76.7685Z" fill="white"/>
<path d="M59.1981 39.2685H63.3233C64.9705 39.2685 66.3057 37.9333 66.3057 36.2861C66.3057 34.6397 64.9705 33.3046 63.3233 33.3046H59.1981C57.5517 33.3046 56.2166 34.6397 56.2166 36.2861C56.2166 37.9333 57.5517 39.2685 59.1981 39.2685Z" fill="white"/>
<path d="M71.4997 39.2685H75.6249C77.2721 39.2685 78.6072 37.9333 78.6072 36.2861C78.6072 34.6397 77.2721 33.3046 75.6249 33.3046H71.4997C69.8525 33.3046 68.5173 34.6397 68.5173 36.2861C68.5173 37.9333 69.8525 39.2685 71.4997 39.2685Z" fill="white"/>
<path d="M87.9256 33.3046H83.8004C82.154 33.3046 80.8188 34.6397 80.8188 36.2861C80.8188 37.9333 82.154 39.2685 83.8004 39.2685H87.9256C89.5728 39.2685 90.908 37.9333 90.908 36.2861C90.908 34.6397 89.5728 33.3046 87.9256 33.3046Z" fill="white"/>
<path d="M35.9543 49.0761H15.8089C11.1497 49.0761 7.35938 52.8664 7.35938 57.5257C7.35938 62.1849 11.1497 65.9752 15.8089 65.9752H35.9543C40.6136 65.9752 44.4039 62.1849 44.4039 57.5257C44.4039 52.8664 40.6136 49.0761 35.9543 49.0761ZM13.3233 57.5257C13.3233 56.1554 14.4387 55.0408 15.8089 55.0408C17.1792 55.0408 18.2938 56.1554 18.2938 57.5257C18.2938 58.8959 17.1792 60.0106 15.8089 60.0106C14.4387 60.0106 13.3233 58.8959 13.3233 57.5257ZM35.9543 60.0106H23.8846C24.3821 58.3969 24.3828 56.6574 23.8846 55.0408H35.9543C37.3246 55.0408 38.4392 56.1554 38.4392 57.5257C38.4392 58.8959 37.3246 60.0106 35.9543 60.0106Z" fill="white"/>
<path d="M41.4216 75.3357H33.2703V74.1425C33.2703 72.496 31.9352 71.1609 30.2888 71.1609C28.6416 71.1609 27.3064 72.496 27.3064 74.1425V75.3357H10.3417C8.69452 75.3357 7.35938 76.6708 7.35938 78.318C7.35938 79.9644 8.69452 81.2996 10.3417 81.2996H27.3064V82.4928C27.3064 84.1393 28.6416 85.4752 30.2888 85.4752C31.9352 85.4752 33.2703 84.1393 33.2703 82.4928V81.2996H41.4216C43.0688 81.2996 44.4039 79.9644 44.4039 78.318C44.4039 76.6708 43.0688 75.3357 41.4216 75.3357Z" fill="white"/>
</g>
<defs>
<clipPath id="clip0_3_1221">
<rect width="100" height="100" fill="white"/>
</clipPath>
</defs>
</svg>
