<svg width="100" height="100" viewBox="0 0 100 100" fill="none" xmlns="http://www.w3.org/2000/svg">
<g clip-path="url(#clip0_3_1249)">
<path d="M98.6863 52.2934C98.4205 52.1176 98.1316 51.9896 97.832 51.909V17.8922C99.073 17.5471 100 16.4172 100 15.0732V2.93066C100 1.3127 98.658 0.000976562 97.0398 0.000976562H2.89922C1.28125 0.000976562 0 1.3127 0 2.93066V15.0732C0 16.4375 0.9125 17.5807 2.16816 17.9066V52.0756C1.86855 52.1562 1.57969 52.2842 1.31387 52.46C0.493359 53.0025 0 53.9203 0 54.9039V67.5256C0 68.6627 0.658008 69.6971 1.6877 70.1789L2.16797 70.4037V97.2361C2.16797 98.8541 3.47969 99.999 5.09766 99.999H31.1822C32.8002 99.999 34.1119 98.8541 34.1119 97.2361C34.1119 86.8396 30.083 79.6287 28.5211 77.224V65.8486C32.7482 61.9018 36.2441 56.9119 38.9244 50.9959C41.1994 45.9742 42.8945 40.2754 43.9625 34.0576C45.1262 27.284 45.2904 21.4172 45.2529 18.0033H54.7465C54.7096 21.4043 54.8752 27.2385 56.0373 33.9764C57.1057 40.1701 58.801 45.85 61.0766 50.8582C63.7566 56.757 67.2522 61.7373 71.4785 65.6822V77.0574C69.9166 79.4621 65.8877 86.673 65.8877 97.0695C65.8877 98.6875 67.1994 99.9992 68.8174 99.9992H94.9023C96.5203 99.9992 97.832 98.6875 97.832 97.0695V70.2369L98.3123 70.0121C99.342 69.5301 100 68.4957 100 67.3588V54.7371C100 53.7537 99.5066 52.8359 98.6863 52.2934ZM5.85938 59.3342L22.6619 66.4836V73.5266L5.85938 65.6619V59.3342ZM8.02754 94.3062V73.1461L23.6244 80.4463C24.6467 82.0393 27.4871 87.0418 28.1246 94.3062H8.02754ZM25.0006 61.1109L8.02754 53.8891V18.0029H25.9014C26.1607 22.258 26.1463 31.4371 22.5227 41.3244C21.9658 42.8436 22.7461 44.5266 24.2652 45.0834C24.598 45.2053 24.9383 45.2631 25.273 45.2631C26.4672 45.2631 27.5893 44.5271 28.024 43.3408C31.9139 32.7271 32.0496 22.952 31.7752 18.0031H39.3863C39.4652 25.7111 38.4537 48.0596 25.0006 61.1109ZM5.82891 12.1436V5.86035H94.1102V12C93.9727 12.0387 93.8391 12.0861 93.7105 12.1436H5.82891ZM61.8357 33.1189C60.725 26.7479 60.5773 21.1551 60.6115 18.0031H68.2228C67.951 22.917 68.0963 32.5883 71.9758 43.1742C72.4107 44.3607 73.5326 45.0965 74.7268 45.0965C75.0615 45.0965 75.4019 45.0387 75.7346 44.9168C77.2537 44.36 78.034 42.6771 77.4771 41.1578C73.8793 31.3404 73.8506 22.2354 74.1021 18.0029H91.9727V53.7223L75.0002 60.9439C66.7715 52.9523 63.2988 41.5105 61.8357 33.1189ZM91.9727 94.1396H71.8756C72.5133 86.8742 75.3539 81.8719 76.376 80.2797L91.9727 72.9795V94.1396ZM94.1406 65.4953L77.3381 73.36V66.317L94.1406 59.1676V65.4953Z" fill="white"/>
</g>
<defs>
<clipPath id="clip0_3_1249">
<rect width="100" height="100" fill="white"/>
</clipPath>
</defs>
</svg>
