<svg width="100" height="100" viewBox="0 0 100 100" fill="none" xmlns="http://www.w3.org/2000/svg">
<path d="M88.1018 58.8224C86.9576 57.6785 85.1027 57.6785 83.9586 58.8224C82.8145 59.9664 82.8145 61.8215 83.9586 62.9656L89.8686 68.8756C90.4406 69.4476 91.1902 69.7336 91.94 69.7336C92.6898 69.7336 93.4397 69.4474 94.0117 68.8756C95.1559 67.7316 95.1559 65.8765 94.0117 64.7324L88.1018 58.8224Z" fill="url(#paint0_linear_3_213)"/>
<path d="M86.0301 34.5775C86.7797 34.5775 87.5297 34.2914 88.1018 33.7195L94.0117 27.8096C95.1559 26.6656 95.1559 24.8105 94.0117 23.6664C92.8676 22.5223 91.0127 22.5223 89.8686 23.6664L83.9586 29.5764C82.8145 30.7203 82.8145 32.5754 83.9586 33.7195C84.5307 34.2916 85.2803 34.5775 86.0301 34.5775Z" fill="url(#paint1_linear_3_213)"/>
<path d="M97.0703 43.3412H88.7123C87.0943 43.3412 85.7826 44.6529 85.7826 46.2709C85.7826 47.8888 87.0943 49.2006 88.7123 49.2006H97.0703C98.6883 49.2006 100 47.8888 100 46.2709C100 44.6529 98.6883 43.3412 97.0703 43.3412Z" fill="url(#paint2_linear_3_213)"/>
<path d="M77.9779 4.60703C77.0529 4.08886 75.9201 4.11113 75.016 4.66465L41.4643 25.2125H26.5695C23.3885 25.0443 20.3623 26.1529 18.0393 28.3396C17.1746 29.1533 16.4457 30.0926 15.8648 31.116H8.49355C3.81016 31.116 0 34.9262 0 39.6096V52.9322C0 57.6156 3.81016 61.4258 8.49355 61.4258H15.8502C17.0299 63.5348 18.8107 65.283 20.9758 66.44L10.7686 84.1197C10.377 84.798 10.2732 85.6049 10.4805 86.3603C10.6879 87.1156 11.1891 87.7564 11.8721 88.1396L24.7982 95.3914C25.2514 95.6457 25.7436 95.7666 26.2291 95.7666C27.2422 95.7666 28.2268 95.2402 28.7688 94.3012L43.3441 69.0555L75.0492 87.8971C75.5102 88.1711 76.0279 88.3082 76.5459 88.3082C77.0455 88.3082 77.5453 88.1807 77.9947 87.9248C78.9102 87.4039 79.4756 86.4316 79.4756 85.3785V7.16308C79.4756 6.10293 78.9027 5.12539 77.9779 4.60703ZM8.49355 55.5664C7.04102 55.5664 5.85938 54.3848 5.85938 52.9322V39.6096C5.85938 38.157 7.04102 36.9754 8.49355 36.9754H14.2854C14.285 37.0191 14.282 37.0627 14.282 37.1064V55.4353C14.282 55.4793 14.2848 55.5227 14.2854 55.5664H8.49355ZM20.1414 37.1064C20.1414 35.3912 20.8389 33.751 22.0549 32.6064C23.2123 31.5172 24.7225 30.9693 26.3094 31.0666C26.3686 31.0701 39.3607 31.0719 39.3607 31.0719V62.0914H26.583C22.9641 61.8314 20.1414 58.9227 20.1414 55.4352V37.1064ZM25.1414 88.8654L17.3258 84.4809L26.6967 68.2498C26.7531 68.1521 26.8018 68.0519 26.8457 67.951H37.2162L25.1414 88.8654ZM73.6162 80.2295L45.2201 63.3543V29.7834L73.6162 12.3928V80.2295Z" fill="url(#paint3_linear_3_213)"/>
<defs>
<linearGradient id="paint0_linear_3_213" x1="83.1553" y1="68.8678" x2="92.7507" y2="60.2074" gradientUnits="userSpaceOnUse">
<stop offset="0.31" stop-color="#00A683"/>
<stop offset="0.945" stop-color="#9ED35B"/>
</linearGradient>
<linearGradient id="paint1_linear_3_213" x1="83.1553" y1="33.7117" x2="92.7509" y2="25.0513" gradientUnits="userSpaceOnUse">
<stop offset="0.31" stop-color="#00A683"/>
<stop offset="0.945" stop-color="#9ED35B"/>
</linearGradient>
<linearGradient id="paint2_linear_3_213" x1="85.8488" y1="48.7695" x2="89.4779" y2="40.822" gradientUnits="userSpaceOnUse">
<stop offset="0.31" stop-color="#00A683"/>
<stop offset="0.945" stop-color="#9ED35B"/>
</linearGradient>
<linearGradient id="paint3_linear_3_213" x1="0.369794" y1="89.0328" x2="73.2148" y2="31.9486" gradientUnits="userSpaceOnUse">
<stop offset="0.31" stop-color="#00A683"/>
<stop offset="0.945" stop-color="#9ED35B"/>
</linearGradient>
</defs>
</svg>
