<svg width="100" height="100" viewBox="0 0 100 100" fill="none" xmlns="http://www.w3.org/2000/svg">
<g clip-path="url(#clip0_3_238)">
<path d="M94.5373 79.4477C96.3852 77.2143 97.4969 74.351 97.4969 71.2328C97.4969 64.1162 91.707 58.3266 84.5906 58.3266C83.008 58.3266 81.4916 58.6143 80.0895 59.1379C79.266 52.8096 73.8445 47.9051 67.2955 47.9051C60.7465 47.9051 55.3248 52.8096 54.5014 59.1379C53.099 58.6143 51.5828 58.3266 50.0002 58.3266C48.4176 58.3266 46.9012 58.6143 45.499 59.1379C44.6756 52.8096 39.2541 47.9051 32.7051 47.9051C26.1561 47.9051 20.7344 52.8096 19.9109 59.1379C18.5086 58.6143 16.9924 58.3266 15.4098 58.3266C8.29316 58.3266 2.50371 64.1162 2.50371 71.2328C2.50371 74.3512 3.61543 77.2143 5.46328 79.4477C2.03105 82.3354 0 86.599 0 91.2182V94.9705C0 96.5885 1.31172 97.9002 2.92969 97.9002H97.0703C98.6883 97.9002 100 96.5885 100 94.9705V91.2182C100 86.599 97.9689 82.3356 94.5373 79.4477ZM91.6377 71.2326C91.6377 75.1184 88.4764 78.2795 84.5908 78.2795C80.7053 78.2795 77.5441 75.1184 77.5441 71.2326C77.5441 67.3469 80.7053 64.1858 84.5908 64.1858C88.4764 64.1858 91.6377 67.3471 91.6377 71.2326ZM69.1814 91.2182V92.0408H65.4094V91.2182C65.4094 86.599 63.3783 82.3356 59.9467 79.4477C61.4582 77.6207 62.4734 75.3709 62.7943 72.9061C64.1967 73.4297 65.7129 73.7174 67.2955 73.7174C68.8781 73.7174 70.3945 73.4297 71.7967 72.9061C72.1174 75.3709 73.1326 77.6207 74.6441 79.4477C71.2125 82.3354 69.1814 86.599 69.1814 91.2182ZM67.2955 53.7645C71.1813 53.7645 74.3422 56.9256 74.3422 60.8113C74.3422 64.6971 71.1811 67.8582 67.2955 67.8582C63.41 67.8582 60.2486 64.6971 60.2486 60.8113C60.2486 56.9256 63.4098 53.7645 67.2955 53.7645ZM57.0469 71.2326C57.0469 75.1184 53.8855 78.2795 50 78.2795C46.1145 78.2795 42.9533 75.1184 42.9533 71.2326C42.9533 67.3469 46.1145 64.1858 50 64.1858C53.8855 64.1858 57.0469 67.3471 57.0469 71.2326ZM34.5906 91.2182V92.0408H30.8186V91.2182C30.8186 86.599 28.7875 82.3356 25.3559 79.4477C26.8674 77.6207 27.8826 75.3709 28.2035 72.9061C29.6059 73.4297 31.1221 73.7174 32.7047 73.7174C34.2873 73.7174 35.8037 73.4297 37.2059 72.9061C37.5266 75.3709 38.5418 77.6207 40.0533 79.4477C36.6219 82.3354 34.5906 86.599 34.5906 91.2182ZM32.7047 53.7645C36.5904 53.7645 39.7514 56.9256 39.7514 60.8113C39.7514 64.6971 36.5902 67.8582 32.7047 67.8582C28.8191 67.8582 25.6578 64.6971 25.6578 60.8113C25.6578 56.9256 28.8191 53.7645 32.7047 53.7645ZM15.4094 64.1859C19.2951 64.1859 22.4562 67.3471 22.4562 71.2328C22.4562 75.1186 19.2949 78.2797 15.4094 78.2797C11.5238 78.2797 8.3627 75.1186 8.3627 71.2328C8.3627 67.3471 11.5236 64.1859 15.4094 64.1859ZM5.85938 92.0408V91.2182C5.85938 87.885 7.56699 84.85 10.3656 83.1117C11.9158 83.7725 13.6205 84.1389 15.4094 84.1389C17.1982 84.1389 18.9029 83.7725 20.4531 83.1117C23.2518 84.85 24.9592 87.885 24.9592 91.2182V92.0408H5.85938ZM40.45 92.0408V91.2182C40.45 87.885 42.1576 84.85 44.9562 83.1117C46.5064 83.7725 48.2111 84.1389 50 84.1389C51.7889 84.1389 53.4936 83.7725 55.0438 83.1117C57.8424 84.85 59.5498 87.885 59.5498 91.2182V92.0408H40.45ZM94.1406 92.0408H75.0408V91.2182C75.0408 87.885 76.7484 84.85 79.5471 83.1117C81.0973 83.7725 82.802 84.1389 84.5908 84.1389C86.3797 84.1389 88.0844 83.7725 89.6346 83.1117C92.4332 84.85 94.1406 87.885 94.1406 91.2182V92.0408Z" fill="url(#paint0_linear_3_238)"/>
<path d="M14.427 34.0148V39.2703C14.427 40.3115 14.9795 41.2746 15.8787 41.7998C16.3352 42.0664 16.8457 42.2 17.3566 42.2C17.8523 42.2 18.3482 42.0742 18.7949 41.8226L32.4898 34.1049H42.1875C44.5227 34.1049 46.6846 33.3535 48.4488 32.0832C50.2922 35.3547 53.7975 37.5701 57.8125 37.5701H67.51L81.2051 45.2879C81.6518 45.5396 82.1477 45.6652 82.6434 45.6652C83.1543 45.6652 83.665 45.5316 84.1213 45.265C85.0205 44.7398 85.573 43.7767 85.573 42.7355V37.4799C90.8398 36.7941 94.9207 32.2785 94.9207 26.8277V16.3072C94.9207 10.384 90.1018 5.56503 84.1785 5.56503H57.8125C55.4773 5.56503 53.3154 6.31639 51.5512 7.58671C49.7078 4.31522 46.2025 2.09979 42.1875 2.09979H15.8213C9.89805 2.09979 5.0791 6.91874 5.0791 12.842V23.3627C5.0791 28.8135 9.16016 33.3291 14.427 34.0148ZM57.8125 11.4244H84.1787C86.8711 11.4244 89.0615 13.6148 89.0615 16.3072V26.8279C89.0615 29.5203 86.8711 31.7107 84.1787 31.7107H82.6436C81.0256 31.7107 79.7139 33.0224 79.7139 34.6404V37.7217L69.717 32.0881C69.2779 31.8406 68.7826 31.7107 68.2787 31.7107H57.8125C55.1201 31.7107 52.9297 29.5203 52.9297 26.8279V16.3072C52.9297 13.6148 55.1201 11.4244 57.8125 11.4244ZM10.9385 12.842C10.9385 10.1496 13.1289 7.95917 15.8213 7.95917H42.1875C44.8799 7.95917 47.0703 10.1496 47.0703 12.842V23.3627C47.0703 26.0551 44.8799 28.2455 42.1875 28.2455H31.7213C31.2174 28.2455 30.7221 28.3756 30.283 28.6228L20.2863 34.2564V31.1752C20.2863 29.5572 18.9746 28.2455 17.3566 28.2455H15.8213C13.1289 28.2455 10.9385 26.0551 10.9385 23.3627V12.842Z" fill="url(#paint1_linear_3_238)"/>
<path d="M21.2092 21.0049H36.7998C38.4178 21.0049 39.7295 19.6932 39.7295 18.0752C39.7295 16.4572 38.4178 15.1455 36.7998 15.1455H21.2092C19.5912 15.1455 18.2795 16.4572 18.2795 18.0752C18.2795 19.6932 19.5912 21.0049 21.2092 21.0049Z" fill="url(#paint2_linear_3_238)"/>
<path d="M63.2004 24.4703H78.791C80.409 24.4703 81.7207 23.1586 81.7207 21.5406C81.7207 19.9226 80.409 18.6109 78.791 18.6109H63.2004C61.5824 18.6109 60.2707 19.9226 60.2707 21.5406C60.2707 23.1586 61.5824 24.4703 63.2004 24.4703Z" fill="url(#paint3_linear_3_238)"/>
</g>
<defs>
<linearGradient id="paint0_linear_3_238" x1="0.465292" y1="94.2222" x2="35.2029" y2="31.5128" gradientUnits="userSpaceOnUse">
<stop offset="0.31" stop-color="#00A683"/>
<stop offset="0.945" stop-color="#9ED35B"/>
</linearGradient>
<linearGradient id="paint1_linear_3_238" x1="5.49713" y1="42.4603" x2="35.271" y2="-12.9553" gradientUnits="userSpaceOnUse">
<stop offset="0.31" stop-color="#00A683"/>
<stop offset="0.945" stop-color="#9ED35B"/>
</linearGradient>
<linearGradient id="paint2_linear_3_238" x1="18.3793" y1="20.5738" x2="21.0423" y2="11.7751" gradientUnits="userSpaceOnUse">
<stop offset="0.31" stop-color="#00A683"/>
<stop offset="0.945" stop-color="#9ED35B"/>
</linearGradient>
<linearGradient id="paint3_linear_3_238" x1="60.3705" y1="24.0392" x2="63.0336" y2="15.2405" gradientUnits="userSpaceOnUse">
<stop offset="0.31" stop-color="#00A683"/>
<stop offset="0.945" stop-color="#9ED35B"/>
</linearGradient>
<clipPath id="clip0_3_238">
<rect width="100" height="100" fill="white"/>
</clipPath>
</defs>
</svg>
