<svg width="100" height="100" viewBox="0 0 100 100" fill="none" xmlns="http://www.w3.org/2000/svg">
<path d="M91.2109 79.432H87.3424C92.1713 79.4117 96.0938 75.4777 96.0938 70.6439C96.0938 65.7977 92.151 61.8549 87.3047 61.8549C82.4584 61.8549 78.5156 65.7977 78.5156 70.6439C78.5156 75.4777 82.4381 79.4115 87.267 79.432C84.6361 79.6625 81.4451 78.6502 78.0617 81.2443L74.1469 55.8691H91.0252C92.6432 55.8691 93.9549 54.5574 93.9549 52.9394V44.0293C93.9549 39.183 90.0121 35.2402 85.1658 35.2402H81.2973C86.1264 35.2197 90.0486 31.2859 90.0486 26.4521C90.0486 21.6059 86.1059 17.6631 81.2596 17.6631C76.4133 17.6631 72.4705 21.6059 72.4705 26.4521C72.4705 31.2859 76.393 35.2197 81.2219 35.2402C78.8094 35.5047 74.8951 34.2795 71.3334 37.6342L70.4828 32.1211C70.2625 30.6926 69.033 29.6381 67.5875 29.6381H62.6953V26.3662C62.6953 21.5199 58.7525 17.5771 53.9062 17.5771H50.0377C54.8666 17.5566 58.7891 13.6229 58.7891 8.78906C58.7891 3.94277 54.8463 0 50 0C45.1537 0 41.2109 3.94277 41.2109 8.78906C41.2109 13.6229 45.1334 17.5566 49.9623 17.5771H46.0938C41.2475 17.5771 37.3047 21.5199 37.3047 26.3662V29.6381H32.4121C30.9666 29.6381 29.7371 30.6924 29.5168 32.1211L28.6662 37.6342C25.1064 34.2814 21.1746 35.5029 18.7777 35.2402C23.6068 35.2197 27.5291 31.2859 27.5291 26.4521C27.5291 21.6059 23.5863 17.6631 18.74 17.6631C13.8937 17.6631 9.95098 21.6059 9.95098 26.4521C9.95098 31.2859 13.8734 35.2197 18.7023 35.2402H14.834C9.98769 35.2402 6.04492 39.183 6.04492 44.0293V52.9394C6.04492 54.5574 7.35664 55.8691 8.97461 55.8691H25.8529L21.9381 81.2443C18.5627 78.6564 15.3309 79.6598 12.7328 79.432C17.5619 79.4117 21.4844 75.4777 21.4844 70.6439C21.4844 65.7977 17.5416 61.8549 12.6953 61.8549C7.84902 61.8549 3.90625 65.7977 3.90625 70.6439C3.90625 75.4777 7.82871 79.4115 12.6576 79.432H8.78906C3.94277 79.432 0 83.3748 0 88.2211V97.0703C0 98.6883 1.31172 100 2.92969 100H97.0703C98.6883 100 100 98.6883 100 97.0703V88.2211C100 83.3748 96.0572 79.432 91.2109 79.432ZM84.375 70.6439C84.375 69.0285 85.6893 67.7143 87.3047 67.7143C88.9201 67.7143 90.2344 69.0285 90.2344 70.6439C90.2344 72.2594 88.9201 73.5736 87.3047 73.5736C85.6893 73.5736 84.375 72.2596 84.375 70.6439ZM78.3301 26.4521C78.3301 24.8367 79.6443 23.5225 81.2598 23.5225C82.8752 23.5225 84.1895 24.8367 84.1895 26.4521C84.1895 28.0676 82.8752 29.3818 81.2598 29.3818C79.6443 29.3818 78.3301 28.0676 78.3301 26.4521ZM74.4238 44.0293C74.4238 42.4139 75.7381 41.0996 77.3535 41.0996H85.166C86.7814 41.0996 88.0957 42.4139 88.0957 44.0293V50.0098H74.4238V44.0293ZM47.0703 8.78906C47.0703 7.17363 48.3846 5.85938 50 5.85938C51.6154 5.85938 52.9297 7.17363 52.9297 8.78906C52.9297 10.4045 51.6154 11.7188 50 11.7188C48.3846 11.7188 47.0703 10.4045 47.0703 8.78906ZM15.8105 26.4521C15.8105 24.8367 17.1248 23.5225 18.7402 23.5225C20.3557 23.5225 21.6699 24.8367 21.6699 26.4521C21.6699 28.0676 20.3557 29.3818 18.7402 29.3818C17.1248 29.3818 15.8105 28.0676 15.8105 26.4521ZM25.5762 50.0098H11.9043V44.0293C11.9043 42.4139 13.2186 41.0996 14.834 41.0996H22.6465C24.2619 41.0996 25.5762 42.4139 25.5762 44.0293V50.0098ZM9.76562 70.6439C9.76562 69.0285 11.0799 67.7143 12.6953 67.7143C14.3107 67.7143 15.625 69.0285 15.625 70.6439C15.625 72.2594 14.3107 73.5736 12.6953 73.5736C11.0799 73.5736 9.76562 72.2596 9.76562 70.6439ZM43.1641 26.3662C43.1641 24.7508 44.4783 23.4365 46.0938 23.4365H53.9062C55.5217 23.4365 56.8359 24.7508 56.8359 26.3662V29.6381H43.1641V26.3662ZM19.5312 94.1406H5.85938V88.2211C5.85938 86.6057 7.17363 85.2914 8.78906 85.2914H16.6016C18.217 85.2914 19.5312 86.6057 19.5312 88.2211V94.1406ZM25.8771 94.1406L34.9244 35.4975H65.0754L74.1228 94.1406H25.8771ZM94.1406 94.1406H80.4688V88.2211C80.4688 86.6057 81.783 85.2914 83.3984 85.2914H91.2109C92.8264 85.2914 94.1406 86.6057 94.1406 88.2211V94.1406Z" fill="url(#paint0_linear_3_164)"/>
<defs>
<linearGradient id="paint0_linear_3_164" x1="0.465292" y1="92.6433" x2="81.9964" y2="19.0592" gradientUnits="userSpaceOnUse">
<stop offset="0.31" stop-color="#00A683"/>
<stop offset="0.945" stop-color="#9ED35B"/>
</linearGradient>
</defs>
</svg>
