<svg width="100" height="100" viewBox="0 0 100 100" fill="none" xmlns="http://www.w3.org/2000/svg">
<g clip-path="url(#clip0_3_204)">
<path d="M97.0703 76.5625H94.1406V16.9922C94.1406 15.3742 92.8289 14.0625 91.2109 14.0625H80.0781V2.92969C80.0781 1.31172 78.7664 0 77.1484 0H22.8516C21.2336 0 19.9219 1.31172 19.9219 2.92969V14.0625H8.78906C7.17109 14.0625 5.85938 15.3742 5.85938 16.9922V76.5625H2.92969C1.31172 76.5625 0 77.8742 0 79.4922V88.4863C0 94.835 5.16504 100 11.5137 100H88.4863C94.835 100 100 94.835 100 88.4863V79.4922C100 77.8742 98.6883 76.5625 97.0703 76.5625ZM25.7812 5.85938H74.2188V45.8984H59.1797C57.5617 45.8984 56.25 47.2102 56.25 48.8281V63.8672H25.7812V5.85938ZM70.0756 51.7578L62.1094 59.724V51.7578H70.0756ZM11.7188 19.9219H19.9219V66.7969C19.9219 68.4148 21.2336 69.7266 22.8516 69.7266H59.1797C59.9482 69.7268 60.7086 69.4117 61.2518 68.868L79.2195 50.9002C79.7637 50.3568 80.0787 49.5961 80.0781 48.8271V19.9219H88.2812V76.5625H66.2109C64.9547 76.5496 63.7748 77.4217 63.4123 78.6234L62.1461 82.4219H37.8539L36.5881 78.6246C36.226 77.4223 35.0459 76.5496 33.7893 76.5625H11.7188V19.9219ZM94.1406 88.4863C94.1406 91.6041 91.6041 94.1406 88.4863 94.1406H11.5137C8.3959 94.1406 5.85938 91.6041 5.85938 88.4863V82.4219H31.6773L32.9629 86.2779C33.3617 87.4742 34.4811 88.2812 35.7422 88.2812H64.2578C65.5188 88.2812 66.6383 87.4742 67.0371 86.2779L68.3227 82.4219H94.1406V88.4863Z" fill="url(#paint0_linear_3_204)"/>
<path d="M34.5703 17.5781H65.4297C67.0477 17.5781 68.3594 16.2664 68.3594 14.6484C68.3594 13.0305 67.0477 11.7188 65.4297 11.7188H34.5703C32.9523 11.7188 31.6406 13.0305 31.6406 14.6484C31.6406 16.2664 32.9523 17.5781 34.5703 17.5781Z" fill="url(#paint1_linear_3_204)"/>
<path d="M65.4297 29.2969C67.0477 29.2969 68.3594 27.9852 68.3594 26.3672C68.3594 24.7492 67.0477 23.4375 65.4297 23.4375H55.8594C54.2414 23.4375 52.9297 24.7492 52.9297 26.3672C52.9297 27.9852 54.2414 29.2969 55.8594 29.2969H65.4297Z" fill="url(#paint2_linear_3_204)"/>
<path d="M44.1406 23.4375H34.5703C32.9523 23.4375 31.6406 24.7492 31.6406 26.3672C31.6406 27.9852 32.9523 29.2969 34.5703 29.2969H44.1406C45.7586 29.2969 47.0703 27.9852 47.0703 26.3672C47.0703 24.7492 45.7586 23.4375 44.1406 23.4375Z" fill="url(#paint3_linear_3_204)"/>
</g>
<defs>
<linearGradient id="paint0_linear_3_204" x1="0.465292" y1="92.6433" x2="81.9964" y2="19.0592" gradientUnits="userSpaceOnUse">
<stop offset="0.31" stop-color="#00A683"/>
<stop offset="0.945" stop-color="#9ED35B"/>
</linearGradient>
<linearGradient id="paint1_linear_3_204" x1="31.8115" y1="17.1471" x2="33.4582" y2="7.83351" gradientUnits="userSpaceOnUse">
<stop offset="0.31" stop-color="#00A683"/>
<stop offset="0.945" stop-color="#9ED35B"/>
</linearGradient>
<linearGradient id="paint2_linear_3_204" x1="53.0015" y1="28.8658" x2="56.4349" y2="20.7058" gradientUnits="userSpaceOnUse">
<stop offset="0.31" stop-color="#00A683"/>
<stop offset="0.945" stop-color="#9ED35B"/>
</linearGradient>
<linearGradient id="paint3_linear_3_204" x1="31.7124" y1="28.8658" x2="35.1458" y2="20.7058" gradientUnits="userSpaceOnUse">
<stop offset="0.31" stop-color="#00A683"/>
<stop offset="0.945" stop-color="#9ED35B"/>
</linearGradient>
<clipPath id="clip0_3_204">
<rect width="100" height="100" fill="white"/>
</clipPath>
</defs>
</svg>
