<svg width="100" height="100" viewBox="0 0 100 100" fill="none" xmlns="http://www.w3.org/2000/svg">
<g clip-path="url(#clip0_3_219)">
<path d="M89.2578 0H10.7422C4.81895 0 0 4.81895 0 10.7422V89.2578C0 95.1811 4.81895 100 10.7422 100H89.2578C95.1811 100 100 95.1811 100 89.2578V10.7422C100 4.81895 95.1811 0 89.2578 0ZM5.85938 10.7422C5.85938 8.0498 8.0498 5.85938 10.7422 5.85938H70.7031V15.625H5.85938V10.7422ZM94.1406 89.2578C94.1406 91.9502 91.9502 94.1406 89.2578 94.1406H10.7422C8.0498 94.1406 5.85938 91.9502 5.85938 89.2578V21.4844H94.1406V89.2578ZM94.1406 15.625H76.5625V5.85938H89.2578C91.9502 5.85938 94.1406 8.0498 94.1406 10.7422V15.625Z" fill="url(#paint0_linear_3_219)"/>
<path d="M14.8438 71.875H46.0938C47.7117 71.875 49.0234 70.5633 49.0234 68.9453C49.0234 61.6881 44.8348 55.3918 38.7488 52.3439C40.2859 50.4854 41.2109 48.1025 41.2109 45.5078V41.6016C41.2109 35.6783 36.392 30.8594 30.4688 30.8594C24.5455 30.8594 19.7266 35.6783 19.7266 41.6016V45.5078C19.7266 48.1025 20.6516 50.4854 22.1887 52.3439C16.1027 55.3918 11.9141 61.6881 11.9141 68.9453C11.9141 70.5633 13.2258 71.875 14.8438 71.875ZM25.5859 41.6016C25.5859 38.9092 27.7764 36.7188 30.4688 36.7188C33.1611 36.7188 35.3516 38.9092 35.3516 41.6016V45.5078C35.3516 48.2002 33.1611 50.3906 30.4688 50.3906C27.7764 50.3906 25.5859 48.2002 25.5859 45.5078V41.6016ZM30.4688 56.25C36.4611 56.25 41.4969 60.4229 42.8229 66.0156H18.1146C19.4406 60.4229 24.4764 56.25 30.4688 56.25Z" fill="url(#paint1_linear_3_219)"/>
<path d="M69.5312 71.875C79.7623 71.875 88.0859 63.5514 88.0859 53.3203C88.0859 43.0893 79.7623 34.7656 69.5312 34.7656C59.3002 34.7656 50.9766 43.0893 50.9766 53.3203C50.9766 63.5514 59.3002 71.875 69.5312 71.875ZM72.4609 40.9699C78.0529 42.2965 82.2266 47.3285 82.2266 53.3203C82.2266 59.3121 78.0529 64.3441 72.4609 65.6707V40.9699ZM66.6016 65.6707C64.1539 65.09 61.9795 63.8 60.3066 62.0291L66.6016 58.3947V65.6707ZM66.6016 40.9699V51.6287L57.3699 56.9586C57.0242 55.8055 56.8359 54.5848 56.8359 53.3203C56.8359 47.3285 61.0096 42.2965 66.6016 40.9699Z" fill="url(#paint2_linear_3_219)"/>
<path d="M43.1641 78.9062H17.7734C16.1555 78.9062 14.8438 80.218 14.8438 81.8359C14.8438 83.4539 16.1555 84.7656 17.7734 84.7656H43.1641C44.782 84.7656 46.0938 83.4539 46.0938 81.8359C46.0938 80.218 44.782 78.9062 43.1641 78.9062Z" fill="url(#paint3_linear_3_219)"/>
<path d="M82.2266 78.9062H56.8359C55.218 78.9062 53.9062 80.218 53.9062 81.8359C53.9062 83.4539 55.218 84.7656 56.8359 84.7656H82.2266C83.8445 84.7656 85.1562 83.4539 85.1562 81.8359C85.1562 80.218 83.8445 78.9062 82.2266 78.9062Z" fill="url(#paint4_linear_3_219)"/>
</g>
<defs>
<linearGradient id="paint0_linear_3_219" x1="0.465292" y1="92.6433" x2="81.9964" y2="19.0592" gradientUnits="userSpaceOnUse">
<stop offset="0.31" stop-color="#00A683"/>
<stop offset="0.945" stop-color="#9ED35B"/>
</linearGradient>
<linearGradient id="paint1_linear_3_219" x1="12.0867" y1="68.8576" x2="45.0246" y2="41.9614" gradientUnits="userSpaceOnUse">
<stop offset="0.31" stop-color="#00A683"/>
<stop offset="0.945" stop-color="#9ED35B"/>
</linearGradient>
<linearGradient id="paint2_linear_3_219" x1="51.1492" y1="69.145" x2="81.4049" y2="41.8384" gradientUnits="userSpaceOnUse">
<stop offset="0.31" stop-color="#00A683"/>
<stop offset="0.945" stop-color="#9ED35B"/>
</linearGradient>
<linearGradient id="paint3_linear_3_219" x1="14.9892" y1="84.3346" x2="16.902" y2="75.1272" gradientUnits="userSpaceOnUse">
<stop offset="0.31" stop-color="#00A683"/>
<stop offset="0.945" stop-color="#9ED35B"/>
</linearGradient>
<linearGradient id="paint4_linear_3_219" x1="54.0517" y1="84.3346" x2="55.9645" y2="75.1272" gradientUnits="userSpaceOnUse">
<stop offset="0.31" stop-color="#00A683"/>
<stop offset="0.945" stop-color="#9ED35B"/>
</linearGradient>
<clipPath id="clip0_3_219">
<rect width="100" height="100" fill="white"/>
</clipPath>
</defs>
</svg>
