<svg width="100" height="100" viewBox="0 0 100 100" fill="none" xmlns="http://www.w3.org/2000/svg">
<g clip-path="url(#clip0_3_140)">
<path d="M10.9313 58.7891H10.9377C12.5527 58.7891 13.8637 57.4817 13.8674 55.8656C13.8881 46.2451 17.6467 37.1998 24.4508 30.3957C25.5949 29.2518 25.5949 27.3967 24.4508 26.2526C23.3068 25.1086 21.4518 25.1086 20.3076 26.2526C12.4 34.1598 8.03184 44.6723 8.00782 55.8531C8.0043 57.4711 9.31329 58.7856 10.9313 58.7891Z" fill="url(#paint0_linear_3_140)"/>
<path d="M86.1328 55.8656C86.1363 57.4815 87.4471 58.7891 89.0625 58.7891H89.0689C90.6869 58.7856 91.9957 57.4711 91.9924 55.8531C91.9684 44.6723 87.6002 34.16 79.6928 26.2526C78.5488 25.1086 76.6937 25.1086 75.5496 26.2526C74.4055 27.3965 74.4055 29.2516 75.5496 30.3957C82.3535 37.1998 86.1121 46.2451 86.1328 55.8656Z" fill="url(#paint1_linear_3_140)"/>
<path d="M57.2291 91.3518C52.432 92.3264 47.5678 92.3264 42.7709 91.3518C41.185 91.0285 39.6385 92.0537 39.3164 93.6393C38.9943 95.225 40.0184 96.7715 41.6041 97.0937C44.3897 97.6598 47.1949 97.943 50 97.943C52.8051 97.943 55.6104 97.66 58.3959 97.0937C59.9816 96.7717 61.0057 95.2252 60.6836 93.6393C60.3613 92.0537 58.8143 91.0291 57.2291 91.3518Z" fill="url(#paint2_linear_3_140)"/>
<path d="M66.8861 31.0453L65.0719 23.7684C64.2512 20.4766 61.9734 17.8666 59.0271 16.5535C60.1103 14.877 60.7422 12.8826 60.7422 10.7422C60.7422 4.81895 55.9232 0 50 0C44.0767 0 39.2578 4.81895 39.2578 10.7422C39.2578 12.8826 39.8894 14.877 40.9726 16.5537C38.0264 17.8666 35.7488 20.4766 34.9281 23.7684L33.1137 31.0453C32.7474 32.5139 33.0719 34.04 34.0037 35.2326C34.9355 36.4252 36.3379 37.1092 37.8514 37.1092H62.1484C63.6619 37.1092 65.0642 36.4252 65.9961 35.2326C66.9279 34.04 67.2523 32.5139 66.8861 31.0453ZM50 5.85938C52.6924 5.85938 54.8828 8.04981 54.8828 10.7422C54.8828 13.4346 52.6924 15.625 50 15.625C47.3076 15.625 45.1172 13.4346 45.1172 10.7422C45.1172 8.04981 47.3076 5.85938 50 5.85938ZM39.1014 31.25L40.6133 25.1859C41.1568 23.0064 43.1051 21.4844 45.3512 21.4844H54.6488C56.8949 21.4844 58.8433 23.0064 59.3867 25.1859L60.8986 31.25H39.1014Z" fill="url(#paint3_linear_3_140)"/>
<path d="M32.1055 86.659C31.2848 83.3672 29.007 80.7572 26.0609 79.4443C27.1441 77.7676 27.7758 75.7732 27.7758 73.6328C27.7758 67.7096 22.9568 62.8906 17.0336 62.8906C11.1103 62.8906 6.2914 67.7096 6.2914 73.6328C6.2914 75.7732 6.92304 77.7676 8.00624 79.4443C5.05996 80.7572 2.78242 83.3674 1.96171 86.6592L0.14726 93.9361C-0.218951 95.4047 0.105463 96.9309 1.0373 98.1234C1.96894 99.316 3.37148 100 4.88496 100H29.182C30.6955 100 32.098 99.316 33.0299 98.1234C33.9617 96.9309 34.2861 95.4045 33.9199 93.9361L32.1055 86.659ZM17.0336 68.75C19.726 68.75 21.9164 70.9404 21.9164 73.6328C21.9164 76.3252 19.726 78.5156 17.0336 78.5156C14.3412 78.5156 12.1508 76.3252 12.1508 73.6328C12.1508 70.9404 14.3412 68.75 17.0336 68.75ZM6.13496 94.1406L7.64706 88.0766C8.19023 85.8971 10.1387 84.375 12.3848 84.375H21.6824C23.9285 84.375 25.8769 85.8971 26.4203 88.0766L27.9322 94.1406H6.13496Z" fill="url(#paint4_linear_3_140)"/>
<path d="M99.8528 93.936L98.0383 86.659C97.2176 83.3672 94.9399 80.7572 91.9938 79.4442C93.077 77.7674 93.7086 75.7731 93.7086 73.6326C93.7086 67.7094 88.8897 62.8904 82.9664 62.8904C77.0432 62.8904 72.2242 67.7094 72.2242 73.6326C72.2242 75.7731 72.8559 77.7674 73.9391 79.4442C70.9928 80.757 68.7152 83.367 67.8945 86.6588L66.0801 93.9358C65.7139 95.4043 66.0383 96.9305 66.9701 98.1231C67.902 99.3156 69.3045 99.9996 70.818 99.9996H95.1151C96.6285 99.9996 98.0311 99.3156 98.9629 98.1231C99.8946 96.9307 100.219 95.4045 99.8528 93.936ZM82.9664 68.75C85.6588 68.75 87.8492 70.9404 87.8492 73.6328C87.8492 76.3252 85.6588 78.5156 82.9664 78.5156C80.274 78.5156 78.0836 76.3252 78.0836 73.6328C78.0836 70.9404 80.274 68.75 82.9664 68.75ZM72.0678 94.1406L73.5797 88.0766C74.1233 85.8971 76.0715 84.375 78.3176 84.375H87.6152C89.8613 84.375 91.8096 85.8971 92.3529 88.0766L93.8651 94.1406H72.0678Z" fill="url(#paint5_linear_3_140)"/>
<path d="M57.6941 50.3547L45.4777 62.5711L42.306 59.3994C41.1621 58.2555 39.307 58.2555 38.1629 59.3994C37.0187 60.5434 37.0187 62.3985 38.1629 63.5426L43.4062 68.7859C43.9783 69.358 44.7281 69.6442 45.4777 69.6442C46.2273 69.6442 46.9773 69.358 47.5492 68.7859L61.8371 54.4981C62.9812 53.3541 62.9812 51.499 61.8371 50.3549C60.6932 49.2108 58.8381 49.2108 57.6941 50.3547Z" fill="url(#paint6_linear_3_140)"/>
</g>
<defs>
<linearGradient id="paint0_linear_3_140" x1="8.08831" y1="56.3324" x2="29.0919" y2="46.5114" gradientUnits="userSpaceOnUse">
<stop offset="0.31" stop-color="#00A683"/>
<stop offset="0.945" stop-color="#9ED35B"/>
</linearGradient>
<linearGradient id="paint1_linear_3_140" x1="74.772" y1="56.3324" x2="95.7754" y2="46.5116" gradientUnits="userSpaceOnUse">
<stop offset="0.31" stop-color="#00A683"/>
<stop offset="0.945" stop-color="#9ED35B"/>
</linearGradient>
<linearGradient id="paint2_linear_3_140" x1="39.3572" y1="97.4537" x2="42.7027" y2="87.6992" gradientUnits="userSpaceOnUse">
<stop offset="0.31" stop-color="#00A683"/>
<stop offset="0.945" stop-color="#9ED35B"/>
</linearGradient>
<linearGradient id="paint3_linear_3_140" x1="33.1249" y1="34.3792" x2="63.0095" y2="9.6187" gradientUnits="userSpaceOnUse">
<stop offset="0.31" stop-color="#00A683"/>
<stop offset="0.945" stop-color="#9ED35B"/>
</linearGradient>
<linearGradient id="paint4_linear_3_140" x1="0.158542" y1="97.27" x2="30.0433" y2="72.5094" gradientUnits="userSpaceOnUse">
<stop offset="0.31" stop-color="#00A683"/>
<stop offset="0.945" stop-color="#9ED35B"/>
</linearGradient>
<linearGradient id="paint5_linear_3_140" x1="66.0914" y1="97.2696" x2="95.976" y2="72.509" gradientUnits="userSpaceOnUse">
<stop offset="0.31" stop-color="#00A683"/>
<stop offset="0.945" stop-color="#9ED35B"/>
</linearGradient>
<linearGradient id="paint6_linear_3_140" x1="37.4229" y1="68.162" x2="53.7999" y2="49.5349" gradientUnits="userSpaceOnUse">
<stop offset="0.31" stop-color="#00A683"/>
<stop offset="0.945" stop-color="#9ED35B"/>
</linearGradient>
<clipPath id="clip0_3_140">
<rect width="100" height="100" fill="white"/>
</clipPath>
</defs>
</svg>
