<svg width="100" height="100" viewBox="0 0 100 100" fill="none" xmlns="http://www.w3.org/2000/svg">
<path d="M91.2109 6.44531H8.78906C3.94277 6.44531 0 10.3881 0 15.2344V72.2656C0 77.1119 3.94277 81.0547 8.78906 81.0547H39.9977L38.3375 87.6953H34.375C32.757 87.6953 31.4453 89.007 31.4453 90.625C31.4453 92.243 32.757 93.5547 34.375 93.5547H65.625C67.243 93.5547 68.5547 92.243 68.5547 90.625C68.5547 89.007 67.243 87.6953 65.625 87.6953H61.6625L60.0023 81.0547H91.2109C96.0572 81.0547 100 77.1119 100 72.2656V15.2344C100 10.3881 96.0572 6.44531 91.2109 6.44531ZM8.78906 12.3047H91.2109C92.8264 12.3047 94.1406 13.6189 94.1406 15.2344V62.6953H5.85938V15.2344C5.85938 13.6189 7.17363 12.3047 8.78906 12.3047ZM55.6229 87.6953H44.3773L46.0375 81.0547H53.9627L55.6229 87.6953ZM91.2109 75.1953C62.8391 75.1953 38.9137 75.1953 8.78906 75.1953C7.17363 75.1953 5.85938 73.8811 5.85938 72.2656V68.5547H94.1406V72.2656C94.1406 73.8811 92.8264 75.1953 91.2109 75.1953Z" fill="url(#paint0_linear_3_183)"/>
<path d="M29.6875 54.4922C39.057 54.4922 46.6797 46.8695 46.6797 37.5C46.6797 28.1305 39.057 20.5078 29.6875 20.5078C20.318 20.5078 12.6953 28.1305 12.6953 37.5C12.6953 46.8738 20.3033 54.4922 29.6875 54.4922ZM40.8203 37.5C40.8203 46.0576 31.5307 51.3842 24.1684 47.1623L31.759 39.5717C32.3084 39.0223 32.6172 38.2771 32.6172 37.5V26.7613C37.3387 28.0508 40.8203 32.3754 40.8203 37.5ZM26.7578 26.7613V36.2867L20.0252 43.0193C16.4031 36.7031 19.7682 28.6703 26.7578 26.7613Z" fill="url(#paint1_linear_3_183)"/>
<path d="M56.25 40.4297H84.375C85.993 40.4297 87.3047 39.118 87.3047 37.5C87.3047 35.882 85.993 34.5703 84.375 34.5703H84.1797V21.875C84.1797 20.257 82.868 18.9453 81.25 18.9453C79.632 18.9453 78.3203 20.257 78.3203 21.875V34.5703H73.2422V25C73.2422 23.382 71.9305 22.0703 70.3125 22.0703C68.6945 22.0703 67.3828 23.382 67.3828 25V34.5703H62.3047V28.125C62.3047 26.507 60.993 25.1953 59.375 25.1953C57.757 25.1953 56.4453 26.507 56.4453 28.125V34.5703H56.25C54.632 34.5703 53.3203 35.882 53.3203 37.5C53.3203 39.118 54.632 40.4297 56.25 40.4297Z" fill="url(#paint2_linear_3_183)"/>
<path d="M56.25 52.9297H68.75C70.368 52.9297 71.6797 51.618 71.6797 50C71.6797 48.382 70.368 47.0703 68.75 47.0703H56.25C54.632 47.0703 53.3203 48.382 53.3203 50C53.3203 51.618 54.632 52.9297 56.25 52.9297Z" fill="url(#paint3_linear_3_183)"/>
<path d="M84.375 47.0703H81.25C79.632 47.0703 78.3203 48.382 78.3203 50C78.3203 51.618 79.632 52.9297 81.25 52.9297H84.375C85.993 52.9297 87.3047 51.618 87.3047 50C87.3047 48.382 85.993 47.0703 84.375 47.0703Z" fill="url(#paint4_linear_3_183)"/>
<defs>
<linearGradient id="paint0_linear_3_183" x1="0.465292" y1="87.1463" x2="71.8155" y2="13.2214" gradientUnits="userSpaceOnUse">
<stop offset="0.31" stop-color="#00A683"/>
<stop offset="0.945" stop-color="#9ED35B"/>
</linearGradient>
<linearGradient id="paint1_linear_3_183" x1="12.8534" y1="51.9921" x2="40.5613" y2="26.985" gradientUnits="userSpaceOnUse">
<stop offset="0.31" stop-color="#00A683"/>
<stop offset="0.945" stop-color="#9ED35B"/>
</linearGradient>
<linearGradient id="paint2_linear_3_183" x1="53.4784" y1="38.8492" x2="70.0272" y2="15.2236" gradientUnits="userSpaceOnUse">
<stop offset="0.31" stop-color="#00A683"/>
<stop offset="0.945" stop-color="#9ED35B"/>
</linearGradient>
<linearGradient id="paint3_linear_3_183" x1="53.4057" y1="52.4986" x2="56.4246" y2="43.9615" gradientUnits="userSpaceOnUse">
<stop offset="0.31" stop-color="#00A683"/>
<stop offset="0.945" stop-color="#9ED35B"/>
</linearGradient>
<linearGradient id="paint4_linear_3_183" x1="78.3621" y1="52.4986" x2="82.9217" y2="46.1887" gradientUnits="userSpaceOnUse">
<stop offset="0.31" stop-color="#00A683"/>
<stop offset="0.945" stop-color="#9ED35B"/>
</linearGradient>
</defs>
</svg>
