<svg width="100" height="100" viewBox="0 0 100 100" fill="none" xmlns="http://www.w3.org/2000/svg">
<g clip-path="url(#clip0_3_190)">
<path d="M96.8224 5.66406H2.78702C1.13983 5.66406 -0.195312 6.99921 -0.195312 8.64639V8.75092V91.4223C-0.195312 93.0695 1.13983 94.4046 2.78702 94.4046H96.8224C98.4696 94.4046 99.8047 93.0695 99.8047 91.4223C99.8047 87.3924 99.8047 12.1628 99.8047 8.64639C99.8047 6.99921 98.4696 5.66406 96.8224 5.66406ZM46.8224 37.2314H5.76859V28.55H46.8224V37.2314ZM5.76859 22.5601V11.7325H93.8408V22.5853C93.8301 22.5853 6.46133 22.5601 5.76859 22.5601ZM5.76859 88.4399V43.1953H46.8224V88.4407H5.76859V88.4399ZM52.787 88.4399C52.787 86.7249 52.787 28.9391 52.787 28.5492H93.8408V88.4399H52.787Z" fill="url(#paint0_linear_3_190)"/>
<path d="M87.3795 17.1593C87.3795 19.0804 85.8215 20.6383 83.9005 20.6383C81.9786 20.6383 80.4207 19.0804 80.4207 17.1593C80.4207 15.2374 81.9786 13.6795 83.9005 13.6795C85.8215 13.6795 87.3795 15.2374 87.3795 17.1593Z" fill="url(#paint1_linear_3_190)"/>
<path d="M75.782 17.1593C75.782 19.0804 74.2249 20.6383 72.303 20.6383C70.3819 20.6383 68.824 19.0804 68.824 17.1593C68.824 15.2374 70.3819 13.6795 72.303 13.6795C74.2249 13.6795 75.782 15.2374 75.782 17.1593Z" fill="url(#paint2_linear_3_190)"/>
<path d="M41.4215 14.1769H11.9316C10.2852 14.1769 8.95004 15.5121 8.95004 17.1593C8.95004 18.8057 10.2852 20.1408 11.9316 20.1408H41.4215C43.0687 20.1408 44.4038 18.8057 44.4038 17.1593C44.4038 15.5121 43.0687 14.1769 41.4215 14.1769Z" fill="url(#paint3_linear_3_190)"/>
<path d="M87.9257 44.3718H59.198C57.5516 44.3718 56.2164 45.707 56.2164 47.3534V58.3542C56.2164 60.0014 57.5516 61.3365 59.198 61.3365H87.9257C89.5729 61.3365 90.9081 60.0014 90.9081 58.3542V47.3534C90.9081 45.707 89.5729 44.3718 87.9257 44.3718ZM84.9442 55.3719H62.1803V50.3357H84.9442V55.3719Z" fill="url(#paint4_linear_3_190)"/>
<path d="M69.0933 65.5526H59.198C57.5516 65.5526 56.2164 66.8877 56.2164 68.5349V79.7509C56.2164 81.398 57.5516 82.7332 59.198 82.7332H69.0933C70.7397 82.7332 72.0749 81.398 72.0749 79.7509V68.5349C72.0749 66.8877 70.7397 65.5526 69.0933 65.5526ZM66.111 76.7685H62.1803V71.5172H66.111V76.7685Z" fill="url(#paint5_linear_3_190)"/>
<path d="M87.9257 65.5526H77.9198C76.2726 65.5526 74.9374 66.8877 74.9374 68.5349C74.9374 70.1821 76.2726 71.5172 77.9198 71.5172H87.9257C89.5729 71.5172 90.9081 70.1821 90.9081 68.5349C90.9081 66.8877 89.5729 65.5526 87.9257 65.5526Z" fill="url(#paint6_linear_3_190)"/>
<path d="M87.9257 76.7685H77.9198C76.2726 76.7685 74.9374 78.1044 74.9374 79.7508C74.9374 81.398 76.2726 82.7332 77.9198 82.7332H87.9257C89.5729 82.7332 90.9081 81.398 90.9081 79.7508C90.9081 78.1044 89.5729 76.7685 87.9257 76.7685Z" fill="url(#paint7_linear_3_190)"/>
<path d="M59.198 39.2685H63.3232C64.9704 39.2685 66.3055 37.9333 66.3055 36.2861C66.3055 34.6397 64.9704 33.3046 63.3232 33.3046H59.198C57.5516 33.3046 56.2164 34.6397 56.2164 36.2861C56.2164 37.9333 57.5516 39.2685 59.198 39.2685Z" fill="url(#paint8_linear_3_190)"/>
<path d="M71.4996 39.2685H75.6248C77.272 39.2685 78.6072 37.9333 78.6072 36.2861C78.6072 34.6397 77.272 33.3046 75.6248 33.3046H71.4996C69.8524 33.3046 68.5173 34.6397 68.5173 36.2861C68.5173 37.9333 69.8524 39.2685 71.4996 39.2685Z" fill="url(#paint9_linear_3_190)"/>
<path d="M87.9257 33.3046H83.8005C82.1541 33.3046 80.8189 34.6397 80.8189 36.2861C80.8189 37.9333 82.1541 39.2685 83.8005 39.2685H87.9257C89.5729 39.2685 90.9081 37.9333 90.9081 36.2861C90.9081 34.6397 89.5729 33.3046 87.9257 33.3046Z" fill="url(#paint10_linear_3_190)"/>
<path d="M35.9543 49.0761H15.8089C11.1496 49.0761 7.35931 52.8664 7.35931 57.5257C7.35931 62.1849 11.1496 65.9752 15.8089 65.9752H35.9543C40.6136 65.9752 44.4038 62.1849 44.4038 57.5257C44.4038 52.8664 40.6136 49.0761 35.9543 49.0761ZM13.3232 57.5257C13.3232 56.1554 14.4386 55.0408 15.8089 55.0408C17.1791 55.0408 18.2938 56.1554 18.2938 57.5257C18.2938 58.8959 17.1791 60.0106 15.8089 60.0106C14.4386 60.0106 13.3232 58.8959 13.3232 57.5257ZM35.9543 60.0106H23.8846C24.382 58.3969 24.3828 56.6574 23.8846 55.0408H35.9543C37.3245 55.0408 38.4392 56.1554 38.4392 57.5257C38.4392 58.8959 37.3245 60.0106 35.9543 60.0106Z" fill="url(#paint11_linear_3_190)"/>
<path d="M41.4215 75.3357H33.2703V74.1425C33.2703 72.496 31.9351 71.1609 30.2887 71.1609C28.6415 71.1609 27.3064 72.496 27.3064 74.1425V75.3357H10.3416C8.69446 75.3357 7.35931 76.6708 7.35931 78.318C7.35931 79.9644 8.69446 81.2996 10.3416 81.2996H27.3064V82.4928C27.3064 84.1393 28.6415 85.4752 30.2887 85.4752C31.9351 85.4752 33.2703 84.1393 33.2703 82.4928V81.2996H41.4215C43.0687 81.2996 44.4038 79.9644 44.4038 78.318C44.4038 76.6708 43.0687 75.3357 41.4215 75.3357Z" fill="url(#paint12_linear_3_190)"/>
</g>
<defs>
<linearGradient id="paint0_linear_3_190" x1="0.26998" y1="87.8763" x2="72.9915" y2="13.9154" gradientUnits="userSpaceOnUse">
<stop offset="0.31" stop-color="#00A683"/>
<stop offset="0.945" stop-color="#9ED35B"/>
</linearGradient>
<linearGradient id="paint1_linear_3_190" x1="80.4531" y1="20.1263" x2="86.1266" y2="15.0058" gradientUnits="userSpaceOnUse">
<stop offset="0.31" stop-color="#00A683"/>
<stop offset="0.945" stop-color="#9ED35B"/>
</linearGradient>
<linearGradient id="paint2_linear_3_190" x1="68.8564" y1="20.1263" x2="74.5299" y2="15.0064" gradientUnits="userSpaceOnUse">
<stop offset="0.31" stop-color="#00A683"/>
<stop offset="0.945" stop-color="#9ED35B"/>
</linearGradient>
<linearGradient id="paint3_linear_3_190" x1="9.11501" y1="19.7021" x2="10.8759" y2="10.2543" gradientUnits="userSpaceOnUse">
<stop offset="0.31" stop-color="#00A683"/>
<stop offset="0.945" stop-color="#9ED35B"/>
</linearGradient>
<linearGradient id="paint4_linear_3_190" x1="56.3778" y1="60.0885" x2="68.0258" y2="38.591" gradientUnits="userSpaceOnUse">
<stop offset="0.31" stop-color="#00A683"/>
<stop offset="0.945" stop-color="#9ED35B"/>
</linearGradient>
<linearGradient id="paint5_linear_3_190" x1="56.2902" y1="81.4693" x2="70.1399" y2="69.9315" gradientUnits="userSpaceOnUse">
<stop offset="0.31" stop-color="#00A683"/>
<stop offset="0.945" stop-color="#9ED35B"/>
</linearGradient>
<linearGradient id="paint6_linear_3_190" x1="75.0117" y1="71.0784" x2="78.4662" y2="62.7306" gradientUnits="userSpaceOnUse">
<stop offset="0.31" stop-color="#00A683"/>
<stop offset="0.945" stop-color="#9ED35B"/>
</linearGradient>
<linearGradient id="paint7_linear_3_190" x1="75.0117" y1="82.2944" x2="78.4662" y2="73.9465" gradientUnits="userSpaceOnUse">
<stop offset="0.31" stop-color="#00A683"/>
<stop offset="0.945" stop-color="#9ED35B"/>
</linearGradient>
<linearGradient id="paint8_linear_3_190" x1="56.2634" y1="38.8297" x2="60.7442" y2="31.9884" gradientUnits="userSpaceOnUse">
<stop offset="0.31" stop-color="#00A683"/>
<stop offset="0.945" stop-color="#9ED35B"/>
</linearGradient>
<linearGradient id="paint9_linear_3_190" x1="68.5643" y1="38.8297" x2="73.0449" y2="31.9881" gradientUnits="userSpaceOnUse">
<stop offset="0.31" stop-color="#00A683"/>
<stop offset="0.945" stop-color="#9ED35B"/>
</linearGradient>
<linearGradient id="paint10_linear_3_190" x1="80.8659" y1="38.8297" x2="85.3467" y2="31.9884" gradientUnits="userSpaceOnUse">
<stop offset="0.31" stop-color="#00A683"/>
<stop offset="0.945" stop-color="#9ED35B"/>
</linearGradient>
<linearGradient id="paint11_linear_3_190" x1="7.53168" y1="64.732" x2="18.684" y2="42.6679" gradientUnits="userSpaceOnUse">
<stop offset="0.31" stop-color="#00A683"/>
<stop offset="0.945" stop-color="#9ED35B"/>
</linearGradient>
<linearGradient id="paint12_linear_3_190" x1="7.53168" y1="84.4221" x2="16.0213" y2="64.5929" gradientUnits="userSpaceOnUse">
<stop offset="0.31" stop-color="#00A683"/>
<stop offset="0.945" stop-color="#9ED35B"/>
</linearGradient>
<clipPath id="clip0_3_190">
<rect width="100" height="100" fill="white"/>
</clipPath>
</defs>
</svg>
