<svg width="72" height="100" viewBox="0 0 72 100" fill="none" xmlns="http://www.w3.org/2000/svg">
<path d="M58.2656 18.46V17.3828C58.2656 10.7395 51.5035 6.1832 45.3484 8.70488C45.0033 3.84727 40.9439 0 36 0C31.692 0 28.0561 2.92148 26.9627 6.88672C20.7736 4.08359 13.7344 8.64219 13.7344 15.4297V35.9631C11.0127 33.751 7.5459 32.4219 3.77344 32.4219C2.15547 32.4219 0.84375 33.7336 0.84375 35.3516V64.8438C0.84375 84.2289 16.6148 100 36 100C55.3852 100 71.1562 84.2289 71.1562 64.8438V27.1484C71.1562 20.5172 64.4172 15.9615 58.2656 18.46ZM65.2969 64.8438C65.2969 80.998 52.1543 94.1406 36 94.1406C19.8457 94.1406 6.70312 80.998 6.70312 64.8438V38.7209C10.7703 39.9748 13.7344 43.7689 13.7344 48.2422V55.6641C13.7344 57.282 15.0461 58.5938 16.6641 58.5938C18.282 58.5938 19.5938 57.282 19.5938 55.6641C19.5938 -16.1896 19.5938 34.0396 19.5938 15.4297C19.5938 13.4912 21.1709 11.9141 23.1094 11.9141C25.0479 11.9141 26.625 13.4912 26.625 15.4297V44.1406C26.625 45.7586 27.9367 47.0703 29.5547 47.0703C31.1727 47.0703 32.4844 45.7586 32.4844 44.1406C32.4844 42.2555 32.4844 11.1562 32.4844 9.375C32.4844 7.43652 34.0615 5.85938 36 5.85938C37.9385 5.85938 39.5156 7.43652 39.5156 9.375V44.1406C39.5156 45.7586 40.8273 47.0703 42.4453 47.0703C44.0633 47.0703 45.375 45.7586 45.375 44.1406V17.3828C45.375 15.4443 46.9521 13.8672 48.8906 13.8672C50.8291 13.8672 52.4062 15.4443 52.4062 17.3828V44.1406C52.4062 45.7586 53.718 47.0703 55.3359 47.0703C56.9539 47.0703 58.2656 45.7586 58.2656 44.1406C58.2656 42.8365 58.2656 29.1938 58.2656 27.1484C58.2656 25.21 59.8428 23.6328 61.7812 23.6328C63.7197 23.6328 65.2969 25.21 65.2969 27.1484V64.8438Z" fill="url(#paint0_linear_11_139)"/>
<path d="M36 60.9952C29.6225 55.8127 20.375 60.2141 20.375 69.5051C20.375 73.6053 22.8273 77.9508 27.6639 82.4207C31.0088 85.5121 34.3248 87.5653 34.4641 87.651C35.4059 88.2309 36.5938 88.2309 37.5357 87.651C37.6752 87.5653 40.991 85.5121 44.3359 82.4207C49.1727 77.9508 51.625 73.6053 51.625 69.5051C51.625 60.1924 42.365 55.8235 36 60.9952ZM36 81.6489C31.7133 78.6567 26.2344 73.503 26.2344 69.5051C26.2344 64.7356 30.8381 62.7409 33.534 66.9438C34.6857 68.7403 37.3154 68.7383 38.466 66.9438C41.158 62.7471 45.7656 64.728 45.7656 69.5051C45.7656 73.5034 40.2855 78.6576 36 81.6489Z" fill="url(#paint1_linear_11_139)"/>
<defs>
<linearGradient id="paint0_linear_11_139" x1="1.17091" y1="92.6433" x2="75.3293" y2="45.5832" gradientUnits="userSpaceOnUse">
<stop offset="0.31" stop-color="#00A683"/>
<stop offset="0.945" stop-color="#9ED35B"/>
</linearGradient>
<linearGradient id="paint1_linear_11_139" x1="20.5204" y1="85.9307" x2="44.5142" y2="62.8313" gradientUnits="userSpaceOnUse">
<stop offset="0.31" stop-color="#00A683"/>
<stop offset="0.945" stop-color="#9ED35B"/>
</linearGradient>
</defs>
</svg>
