<svg width="100" height="100" viewBox="0 0 100 100" fill="none" xmlns="http://www.w3.org/2000/svg">
<path d="M47.0703 32.2271C47.0703 33.845 48.382 35.1568 50 35.1568C51.6179 35.1568 52.9296 33.845 52.9296 32.2271V27.5812L57.9308 22.58C59.075 21.4359 59.075 19.581 57.9308 18.4368C56.7869 17.2927 54.9318 17.2927 53.7877 18.4368L49.9998 22.2245L46.2119 18.4368C45.0679 17.2927 43.2128 17.2927 42.0687 18.4368C40.9246 19.581 40.9246 21.4359 42.0687 22.58L47.0699 27.5812V32.2271H47.0703Z" fill="url(#paint0_linear_3_226)"/>
<path d="M92.5952 53.5878C85.4072 48.9849 75.068 48.5351 65.6126 52.4132C61.1403 54.2475 57.1251 56.969 54.0011 60.2836C53.6296 60.6778 53.2744 61.0799 52.9298 61.4871V52.2306C56.3398 51.0212 58.7892 47.7648 58.7892 43.9454V43.916C58.7892 41.1209 59.9792 38.5953 61.9721 37.1601C68.5805 32.402 71.6936 24.4284 70.0969 16.3513C69.3155 12.3986 67.3387 8.77475 64.3801 5.87145C61.4259 2.97225 57.7679 1.06112 53.8015 0.344332C47.7123 -0.756248 41.5373 0.855071 36.8582 4.76403C32.1772 8.67495 29.4925 14.4134 29.4925 20.5081C29.4925 27.0205 32.4825 33.0008 37.6959 36.9158C39.8971 38.5687 41.2111 41.182 41.2111 43.9066V43.9454C41.2111 47.7648 43.6605 51.0212 47.0705 52.2306V61.5221C46.7217 61.1108 46.3621 60.7043 45.9857 60.3061C42.8426 56.9786 38.8086 54.2467 34.3198 52.4055C24.8938 48.5398 14.5806 48.9923 7.40489 53.5876C6.56544 54.1251 6.05704 55.0524 6.05509 56.0493C6.05314 57.046 6.55821 57.9752 7.39571 58.5159C13.3193 62.3405 24.3583 67.4525 34.0989 71.3146C28.0538 73.1193 23.6331 78.7273 23.6331 85.3513C23.6331 93.4284 30.2044 99.9996 38.2815 99.9996H61.7188C69.7959 99.9996 76.3672 93.4284 76.3672 85.3513C76.3672 78.7273 71.9465 73.1193 65.9014 71.3146C75.6422 67.4525 86.6812 62.3405 92.6046 58.5159C93.4419 57.9752 93.947 57.046 93.945 56.0491C93.9433 55.0528 93.4347 54.1253 92.5952 53.5878ZM41.2141 32.2307C37.4885 29.4328 35.3516 25.1602 35.3516 20.5083C35.3516 16.1548 37.2699 12.0554 40.6149 9.26088C43.2904 7.02554 46.5388 5.85719 49.9707 5.85719C50.8894 5.85719 51.8216 5.94098 52.7589 6.11031C58.462 7.14097 63.2278 11.8195 64.3485 17.4878C65.495 23.2876 63.2723 29.0035 58.5481 32.4053C55.0298 34.9387 52.9294 39.2416 52.9294 43.9161V43.9456C52.9294 45.5611 51.6152 46.8753 49.9998 46.8753C48.3843 46.8753 47.0701 45.5611 47.0701 43.9456V43.9068C47.0703 39.349 44.8812 34.9842 41.2141 32.2307ZM32.0961 57.8268C37.9623 60.2329 42.5947 64.299 45.2199 69.1799C36.7289 66.3398 23.896 60.9278 15.4183 56.4001C20.4171 55.0335 26.4106 55.4952 32.0961 57.8268ZM70.5076 85.3516C70.5076 90.1979 66.5649 94.1407 61.7186 94.1407H38.2813C33.435 94.1407 29.4923 90.1979 29.4923 85.3516C29.4923 80.5054 33.435 76.5626 38.2813 76.5626H49.998H50C50 76.5626 50.0013 76.5626 50.0019 76.5626H61.7186C66.5651 76.5626 70.5076 80.5054 70.5076 85.3516ZM54.7402 69.1933C57.3284 64.2776 61.8936 60.2717 67.836 57.8344C71.4235 56.363 75.1311 55.6327 78.6355 55.6327C80.7119 55.6327 82.7168 55.8891 84.5824 56.3999C76.092 60.9342 63.2309 66.357 54.7402 69.1933Z" fill="url(#paint1_linear_3_226)"/>
<path d="M14.8441 23.438H20.7035C22.3214 23.438 23.6331 22.1263 23.6331 20.5083C23.6331 18.8903 22.3214 17.5786 20.7035 17.5786H14.8441C13.2261 17.5786 11.9144 18.8903 11.9144 20.5083C11.9144 22.1263 13.2259 23.438 14.8441 23.438Z" fill="url(#paint2_linear_3_226)"/>
<path d="M76.3669 20.5083C76.3669 22.1263 77.6787 23.438 79.2966 23.438H85.156C86.774 23.438 88.0857 22.1263 88.0857 20.5083C88.0857 18.8903 86.774 17.5786 85.156 17.5786H79.2966C77.6787 17.5786 76.3669 18.8903 76.3669 20.5083Z" fill="url(#paint3_linear_3_226)"/>
<path d="M23.1634 32.6195L18.0892 35.5492C16.6878 36.3582 16.2077 38.15 17.0169 39.5512C17.5595 40.4912 18.5442 41.0164 19.5567 41.0164C20.0538 41.0164 20.5575 40.8898 21.0188 40.6234L26.0931 37.6937C27.4944 36.8848 27.9745 35.093 27.1653 33.6918C26.3563 32.2904 24.5645 31.8105 23.1634 32.6195Z" fill="url(#paint4_linear_3_226)"/>
<path d="M75.3744 8.79006C75.8715 8.79006 76.3752 8.6635 76.8365 8.39709L81.9107 5.4674C83.3121 4.65842 83.7922 2.86662 82.983 1.46545C82.1738 0.0640817 80.3822 -0.415606 78.981 0.393183L73.9068 3.32287C72.5054 4.13186 72.0254 5.92365 72.8346 7.32482C73.3773 8.26486 74.3621 8.79006 75.3744 8.79006Z" fill="url(#paint5_linear_3_226)"/>
<path d="M18.0892 5.46739L23.1634 8.39708C23.6247 8.66349 24.1284 8.79005 24.6255 8.79005C25.638 8.79005 26.6228 8.26466 27.1653 7.32481C27.9745 5.92364 27.4944 4.13185 26.0931 3.32286L21.0188 0.393174C19.6177 -0.416006 17.8257 0.0640722 17.0169 1.46544C16.2077 2.86661 16.6878 4.65841 18.0892 5.46739Z" fill="url(#paint6_linear_3_226)"/>
<path d="M73.907 37.6937L78.9812 40.6234C79.4425 40.8898 79.9463 41.0164 80.4433 41.0164C81.4558 41.0164 82.4406 40.491 82.9832 39.5512C83.7924 38.15 83.3123 36.3582 81.9109 35.5492L76.8367 32.6195C75.4353 31.8101 73.6435 32.2904 72.8347 33.6918C72.0256 35.093 72.5056 36.8848 73.907 37.6937Z" fill="url(#paint7_linear_3_226)"/>
<defs>
<linearGradient id="paint0_linear_3_226" x1="41.2924" y1="33.8636" x2="55.624" y2="20.9287" gradientUnits="userSpaceOnUse">
<stop offset="0.31" stop-color="#00A683"/>
<stop offset="0.945" stop-color="#9ED35B"/>
</linearGradient>
<linearGradient id="paint1_linear_3_226" x1="6.46403" y1="92.6434" x2="86.2696" y2="29.3352" gradientUnits="userSpaceOnUse">
<stop offset="0.31" stop-color="#00A683"/>
<stop offset="0.945" stop-color="#9ED35B"/>
</linearGradient>
<linearGradient id="paint2_linear_3_226" x1="11.9689" y1="23.0069" x2="16.0403" y2="15.6578" gradientUnits="userSpaceOnUse">
<stop offset="0.31" stop-color="#00A683"/>
<stop offset="0.945" stop-color="#9ED35B"/>
</linearGradient>
<linearGradient id="paint3_linear_3_226" x1="76.4215" y1="23.0069" x2="80.4929" y2="15.6578" gradientUnits="userSpaceOnUse">
<stop offset="0.31" stop-color="#00A683"/>
<stop offset="0.945" stop-color="#9ED35B"/>
</linearGradient>
<linearGradient id="paint4_linear_3_226" x1="16.6747" y1="40.3698" x2="23.8309" y2="32.3351" gradientUnits="userSpaceOnUse">
<stop offset="0.31" stop-color="#00A683"/>
<stop offset="0.945" stop-color="#9ED35B"/>
</linearGradient>
<linearGradient id="paint5_linear_3_226" x1="72.4923" y1="8.14342" x2="79.6484" y2="0.108819" gradientUnits="userSpaceOnUse">
<stop offset="0.31" stop-color="#00A683"/>
<stop offset="0.945" stop-color="#9ED35B"/>
</linearGradient>
<linearGradient id="paint6_linear_3_226" x1="16.6747" y1="8.1434" x2="23.8309" y2="0.108777" gradientUnits="userSpaceOnUse">
<stop offset="0.31" stop-color="#00A683"/>
<stop offset="0.945" stop-color="#9ED35B"/>
</linearGradient>
<linearGradient id="paint7_linear_3_226" x1="72.4925" y1="40.3697" x2="79.6489" y2="32.3351" gradientUnits="userSpaceOnUse">
<stop offset="0.31" stop-color="#00A683"/>
<stop offset="0.945" stop-color="#9ED35B"/>
</linearGradient>
</defs>
</svg>
